<?xml version="1.0" encoding="UTF-8" standalone="no"?>
<svg
   xmlns:dc="http://purl.org/dc/elements/1.1/"
   xmlns:cc="http://creativecommons.org/ns#"
   xmlns:rdf="http://www.w3.org/1999/02/22-rdf-syntax-ns#"
   xmlns:svg="http://www.w3.org/2000/svg"
   xmlns="http://www.w3.org/2000/svg"
   viewBox="0 0 957.18665 310.98666"
   height="310.98666"
   width="957.18665"
   xml:space="preserve"
   id="svg2"
   version="1.1"><metadata
     id="metadata8"><rdf:RDF><cc:Work
         rdf:about=""><dc:format>image/svg+xml</dc:format><dc:type
           rdf:resource="http://purl.org/dc/dcmitype/StillImage" /></cc:Work></rdf:RDF></metadata><defs
     id="defs6"><clipPath
       id="clipPath20"
       clipPathUnits="userSpaceOnUse"><path
         id="path18"
         d="M 0,0 H 7178.86 V 2332 H 0 Z" /></clipPath></defs><g
     transform="matrix(1.3333333,0,0,-1.3333333,0,310.98667)"
     id="g10"><g
       transform="scale(0.1)"
       id="g12"><g
         id="g14"><g
           clip-path="url(#clipPath20)"
           id="g16"><path
             id="path22"
             style="fill:#231f20;fill-opacity:1;fill-rule:nonzero;stroke:none"
             d="m 831.215,447.738 c 0,8.434 -0.664,10.992 8.695,10.992 1.207,0 3.485,0 3.485,1.739 0,1.461 -1.071,1.863 -2.278,1.863 -5.082,0 -10.164,-0.531 -15.25,-0.531 -5.082,0 -9.898,0.531 -14.984,0.531 -1.34,0 -2.274,-0.402 -2.274,-1.863 0,-1.739 2.137,-1.739 3.344,-1.739 9.363,0 8.695,-2.558 8.695,-10.992 v -54.726 c 0,-8.41 0.668,-10.953 -8.562,-10.953 -1.34,0 -3.477,0 -3.477,-1.75 0,-1.34 1.071,-1.868 2.274,-1.868 4.547,0 8.828,0.528 13.379,0.528 12.843,0 25.953,-0.528 38.8,-0.528 3.614,0 3.344,1.61 3.481,5.079 0.133,4.691 1.469,9.378 1.469,13.921 0,0.938 0,1.86 -1.2,1.86 -0.804,0 -1.339,-1.051 -1.613,-1.731 -1.469,-3.621 -3.875,-8.558 -6.957,-11.101 -3.738,-3.071 -9.898,-4.41 -14.719,-4.41 -12.039,0 -12.308,4.82 -12.308,14.992 v 50.687" /><path
             id="path24"
             style="fill:#231f20;fill-opacity:1;fill-rule:nonzero;stroke:none"
             d="m 912.926,451.762 c 0,2.269 -0.403,5.226 2.136,6.16 2.141,0.808 8.028,0.808 10.168,0.808 4.555,0 10.305,0 14.719,-1.351 4.414,-1.328 6.289,-3.738 8.293,-7.899 l 2.012,-3.73 c 0.398,-0.949 0.934,-2.68 2.141,-2.68 1.335,0 1.203,2.012 1.203,2.809 v 11.5 c 0,1.742 0.672,4.953 -1.875,4.953 -11.371,0 -22.606,-0.531 -34.118,-0.531 -8.293,0 -16.859,0.531 -25.148,0.531 -1.207,0 -2.277,-0.66 -2.277,-2.012 0,-1.59 2.14,-1.59 3.476,-1.59 9.231,0 8.699,-2.679 8.699,-10.992 v -54.449 c 0,-8.559 0.532,-11.23 -8.699,-11.23 -1.336,0 -3.476,-0.137 -3.476,-1.61 0,-1.48 1.07,-2.008 2.277,-2.008 2.672,0 5.613,0.528 8.289,0.528 h 52.316 c 1.071,0 1.34,-0.129 1.473,0.801 l 2.008,14.179 c 0.269,1.09 0.531,2.153 0.531,3.223 0,0.93 -0.398,1.469 -1.336,1.469 -1.605,0 -2.539,-3.602 -2.941,-4.551 -4.555,-11.758 -11.906,-12.031 -23.418,-12.031 -10.567,0 -16.453,0.121 -16.453,12.441 v 23.281 c 0,4.551 1.336,4.551 6.687,4.551 4.016,0 10.973,0 16.188,-1.203 2.945,-0.68 4.011,-4.699 4.687,-8.57 0.133,-0.809 0.532,-2.27 1.739,-2.27 0.668,0 1.468,0.262 1.468,2.41 -0.133,4.281 -0.398,8.289 -0.664,12.571 0.266,3.75 0.531,7.75 0.664,11.511 0,1.071 -0.8,1.328 -1.468,1.328 -1.207,0 -1.606,-1.468 -1.739,-2.269 -0.676,-3.871 -1.343,-8.828 -4.687,-9.231 -5.215,-0.668 -12.172,-0.539 -16.188,-0.539 -5.488,0 -6.687,0 -6.687,6.289 v 19.403" /><path
             id="path26"
             style="fill:#231f20;fill-opacity:1;fill-rule:nonzero;stroke:none"
             d="m 994.641,392.898 c 0,-8.437 0.668,-11.117 -8.696,-11.117 -1.203,0 -3.347,0.141 -3.347,-1.601 0,-1.469 1.074,-1.739 2.273,-1.739 5.09,0 10.172,0.528 15.259,0.528 5.08,0 9.9,-0.528 14.98,-0.528 1.21,0 2.28,0.27 2.28,1.739 0,1.742 -2.28,1.601 -3.48,1.601 -9.23,0.141 -8.7,2.539 -8.7,11.117 v 54.84 c 0,8.434 -0.67,10.992 8.7,10.992 1.2,0 3.48,0 3.48,1.739 0,1.461 -1.07,1.863 -2.28,1.863 -5.08,0 -10.16,-0.531 -15.251,-0.531 -5.086,0 -9.898,0.531 -14.988,0.531 -1.336,0 -2.273,-0.402 -2.273,-1.863 0,-1.739 2.144,-1.739 3.347,-1.739 9.364,0 8.696,-2.558 8.696,-10.992 v -54.84" /><path
             id="path28"
             style="fill:#231f20;fill-opacity:1;fill-rule:evenodd;stroke:none"
             d="m 1067.09,417.781 c 0,7.348 1.21,6.149 9.1,6.149 7.5,0 14.59,0 21.28,-3.871 6.82,-3.75 10.3,-10.309 10.3,-18.071 0,-5.629 -2.54,-11.636 -6.69,-15.379 -4.95,-4.55 -10.84,-5.359 -17.26,-5.359 -3.48,0 -9.9,0.129 -12.84,2.012 -4.15,2.539 -3.89,8.699 -3.89,12.976 z m 0,34.11 c 0,2.289 -0.26,5.898 1.34,7.629 2.15,2.41 8.16,2.41 10.98,2.41 11.63,0 22.74,-4.821 22.74,-18.192 0,-4.699 -1.6,-9.238 -4.95,-12.316 -4.55,-4.274 -10.57,-4.813 -16.33,-4.813 h -7.22 c -5.89,0 -6.56,0.262 -6.56,6.411 z m -10.57,-58.602 c 0,-8.559 0.54,-11.508 -8.82,-11.508 -1.21,0 -3.35,0.399 -3.35,-1.332 0,-1.48 1.07,-2.008 2.28,-2.008 2.8,0 5.75,0.528 8.42,0.528 10.98,0 21.68,-0.528 32.65,-0.528 7.89,0 14.85,0.528 21.54,5.231 6.16,3.988 10.43,11.09 10.43,18.719 0,13.519 -11.9,22.211 -23.94,23.679 9.09,1.871 18.6,7.77 18.6,18.328 0,7.891 -5.76,13.782 -12.58,16.743 -7.76,3.328 -18.2,3.328 -26.49,3.328 -7.76,0 -19,-0.258 -26.5,-1.59 -1.47,-0.277 -6.15,-0.949 -6.15,-3.219 0,-0.808 0.67,-1.211 1.47,-1.211 1.61,0 3.88,1.071 6.42,1.071 6.96,0 6.02,-5.879 6.02,-11.231 v -55" /><path
             id="path30"
             style="fill:#231f20;fill-opacity:1;fill-rule:nonzero;stroke:none"
             d="m 1218.4,396.238 -47.36,61.41 c -1.61,2.141 -2.69,4.024 -5.5,4.684 h -16.58 c -1.47,0 -3.21,-0.141 -3.21,-2.141 0,-1.461 2.14,-1.461 3.34,-1.461 9.37,0 8.7,-2.679 8.7,-11.121 v -54.711 c 0,-8.296 0.67,-11.117 -8.7,-11.117 -1.2,0 -3.48,0.399 -3.48,-1.332 0,-1.48 1.07,-2.008 2.41,-2.008 3.88,0 7.89,0.528 11.64,0.528 4.02,0 7.76,-0.528 11.78,-0.528 1.33,0 2.27,0.528 2.27,2.008 0,1.731 -2.14,1.332 -3.35,1.332 -9.36,0 -8.69,2.821 -8.69,11.117 v 60.473 l 56.19,-73.062 c 0.66,-1.059 1.88,-3.2 3.35,-3.2 1.21,0 0.93,1.86 0.93,2.551 v 67.949 c 0,8.301 -0.52,11.121 8.7,11.121 1.33,0 3.48,0 3.48,1.461 0,1.481 -1.08,2.141 -2.27,2.141 -3.89,0 -7.64,-0.531 -11.64,-0.531 -4.02,0 -7.76,0.531 -11.78,0.531 -1.34,0 -2.4,-0.66 -2.4,-2.141 0,-1.461 2.12,-1.461 3.33,-1.461 9.36,0 8.84,-2.679 8.84,-11.121 v -51.371" /><path
             id="path32"
             style="fill:#231f20;fill-opacity:1;fill-rule:nonzero;stroke:none"
             d="m 1268.77,392.898 c 0,-8.437 0.69,-11.117 -8.69,-11.117 -1.2,0 -3.34,0.141 -3.34,-1.601 0,-1.469 1.06,-1.739 2.27,-1.739 5.1,0 10.17,0.528 15.25,0.528 5.09,0 9.91,-0.528 14.99,-0.528 1.22,0 2.27,0.27 2.27,1.739 0,1.742 -2.27,1.601 -3.47,1.601 -9.24,0.141 -8.7,2.539 -8.7,11.117 v 54.84 c 0,8.434 -0.67,10.992 8.7,10.992 1.2,0 3.47,0 3.47,1.739 0,1.461 -1.05,1.863 -2.27,1.863 -5.08,0 -10.17,-0.531 -15.25,-0.531 -5.09,0 -9.89,0.531 -14.99,0.531 -1.33,0 -2.27,-0.402 -2.27,-1.863 0,-1.739 2.14,-1.739 3.34,-1.739 9.38,0 8.69,-2.558 8.69,-10.992 v -54.84" /><path
             id="path34"
             style="fill:#231f20;fill-opacity:1;fill-rule:nonzero;stroke:none"
             d="m 1357.69,452.172 c 0,6.808 0,6.558 6.03,6.558 h 7.75 c 4.15,0 7.9,0 10.83,-3.492 2.02,-2.547 2.95,-6.289 3.9,-9.09 0.26,-0.816 0.53,-1.878 1.47,-1.878 1.47,0 1.61,1.21 1.61,2.281 l 0.8,16.328 c 0,0.93 0.66,4.801 -1.2,4.801 -1.35,0 -1.62,-1.192 -2.01,-2.27 -1.35,-3.738 -4.68,-3.078 -8.17,-3.078 h -48.58 c -2.14,0 -4.93,-0.402 -6.68,1.066 -1.07,0.813 -0.94,1.622 -1.07,2.821 0,0.793 -0.4,1.461 -1.21,1.461 -1.19,0 -1.46,-0.93 -1.73,-1.871 l -5.21,-17.387 c -0.27,-0.684 -0.82,-2.274 -0.82,-3.211 0,-0.941 0.4,-1.621 1.34,-1.621 1.34,0 2.42,2.289 2.95,3.219 6.43,10.711 11.37,11.921 23.55,11.921 4.15,0 5.88,0.93 5.88,-3.89 v -61.942 c 0,-8.437 0.66,-11.117 -8.69,-11.117 -1.21,0 -3.35,0.141 -3.35,-1.601 0,-1.469 1.08,-1.739 2.29,-1.739 5.07,0 10.15,0.528 15.25,0.528 5.07,0 9.89,-0.528 14.97,-0.528 1.2,0 2.28,0.27 2.28,1.739 0,1.742 -2.28,1.601 -3.49,1.601 -9.21,0 -8.69,2.539 -8.69,11.117 v 59.274" /><path
             id="path36"
             style="fill:#231f20;fill-opacity:1;fill-rule:nonzero;stroke:none"
             d="m 1423.87,392.898 c 0,-8.437 0.69,-11.117 -8.69,-11.117 -1.21,0 -3.34,0.141 -3.34,-1.601 0,-1.469 1.06,-1.739 2.27,-1.739 5.09,0 10.17,0.528 15.25,0.528 5.09,0 9.9,-0.528 15,-0.528 1.2,0 2.27,0.27 2.27,1.739 0,1.742 -2.27,1.601 -3.48,1.601 -9.24,0.141 -8.7,2.539 -8.7,11.117 v 54.84 c 0,8.434 -0.68,10.992 8.7,10.992 1.21,0 3.48,0 3.48,1.739 0,1.461 -1.07,1.863 -2.27,1.863 -5.1,0 -10.17,-0.531 -15.25,-0.531 -5.1,0 -9.91,0.531 -15,0.531 -1.34,0 -2.27,-0.402 -2.27,-1.863 0,-1.739 2.13,-1.739 3.34,-1.739 9.38,0 8.69,-2.558 8.69,-10.992 v -54.84" /><path
             id="path38"
             style="fill:#231f20;fill-opacity:1;fill-rule:nonzero;stroke:none"
             d="m 1484.02,392.898 c 0,-8.437 0.67,-11.117 -8.7,-11.117 -1.2,0 -3.35,0.141 -3.35,-1.601 0,-1.469 1.08,-1.739 2.28,-1.739 5.09,0 10.17,0.528 15.26,0.528 5.09,0 9.89,-0.528 14.99,-0.528 1.2,0 2.28,0.27 2.28,1.739 0,1.742 -2.28,1.601 -3.49,1.601 -9.22,0.141 -8.69,2.539 -8.69,11.117 v 54.84 c 0,8.434 -0.68,10.992 8.69,10.992 1.21,0 3.49,0 3.49,1.739 0,1.461 -1.08,1.863 -2.28,1.863 -5.1,0 -10.17,-0.531 -15.26,-0.531 -5.09,0 -9.9,0.531 -14.99,0.531 -1.34,0 -2.28,-0.402 -2.28,-1.863 0,-1.739 2.15,-1.739 3.35,-1.739 9.37,0 8.7,-2.558 8.7,-10.992 v -54.84" /><path
             id="path40"
             style="fill:#231f20;fill-opacity:1;fill-rule:nonzero;stroke:none"
             d="m 1015.57,577.059 c -0.39,4.421 0.81,7.351 -3.74,9.089 -6.42,2.551 -14.717,3.75 -21.541,3.75 -25.687,0 -50.848,-18.468 -50.848,-45.226 0,-12.84 5.621,-23.281 15.524,-31.434 9.367,-7.636 20.605,-10.437 32.648,-10.437 9.766,0 20.207,2 28.497,7.34 3.08,2.031 2.41,3.488 2.41,6.98 V 532.5 c 0,2 -0.27,5.879 1.47,7.352 0.94,0.937 2.94,0.937 4.15,1.07 l 2.54,0.277 c 1.21,0 2.54,0.141 2.54,1.731 0,1.34 -1.2,1.621 -2.27,1.621 -4.68,0 -9.23,-0.551 -13.78,-0.551 -4.82,0 -9.64,0.551 -14.455,0.551 -1.199,0 -3.074,0 -3.074,-1.742 0,-1.75 1.875,-1.61 3.211,-1.61 7.758,0 9.098,-1.199 9.098,-8.699 v -11.109 c 0,-3.211 0.26,-8.961 -2.54,-11.25 -3.75,-3.071 -10.707,-3.743 -15.254,-3.743 -11.508,0 -21.273,3.082 -28.902,11.934 -6.824,7.738 -9.633,17.129 -9.633,27.277 0,9.621 3.344,21 9.633,28.641 6.82,8.422 16.324,11.77 26.891,11.77 23.685,0 21.145,-17.258 25.685,-17.258 1.48,0 2.01,1.328 2.01,2.668 l -0.27,5.629 v 0" /><path
             id="path42"
             style="fill:#231f20;fill-opacity:1;fill-rule:nonzero;stroke:none"
             d="m 1076.7,577.18 c 0,2.281 -0.4,5.23 2.14,6.172 2.14,0.796 8.03,0.796 10.17,0.796 4.54,0 10.3,0 14.72,-1.347 4.41,-1.321 6.28,-3.731 8.29,-7.879 l 2.01,-3.762 c 0.4,-0.941 0.93,-2.68 2.14,-2.68 1.33,0 1.2,2.02 1.2,2.821 v 11.5 c 0,1.75 0.67,4.969 -1.87,4.969 -11.37,0 -22.61,-0.551 -34.12,-0.551 -8.3,0 -16.86,0.551 -25.15,0.551 -1.21,0 -2.28,-0.68 -2.28,-2.02 0,-1.602 2.14,-1.602 3.48,-1.602 9.23,0 8.69,-2.668 8.69,-10.968 v -54.461 c 0,-8.578 0.54,-11.231 -8.69,-11.231 -1.34,0 -3.48,-0.148 -3.48,-1.609 0,-1.481 1.07,-2.02 2.28,-2.02 2.67,0 5.62,0.539 8.29,0.539 h 52.32 c 1.07,0 1.33,-0.136 1.47,0.801 l 2.01,14.192 c 0.27,1.078 0.53,2.14 0.53,3.211 0,0.937 -0.4,1.48 -1.34,1.48 -1.6,0 -2.54,-3.613 -2.94,-4.551 -4.55,-11.793 -11.91,-12.043 -23.42,-12.043 -10.57,0 -16.45,0.121 -16.45,12.434 v 23.277 c 0,4.551 1.34,4.551 6.68,4.551 4.02,0 10.98,0 16.2,-1.211 2.94,-0.648 4.01,-4.668 4.68,-8.547 0.13,-0.812 0.53,-2.293 1.74,-2.293 0.67,0 1.47,0.27 1.47,2.41 -0.13,4.301 -0.4,8.301 -0.67,12.582 0.27,3.75 0.54,7.758 0.67,11.508 0,1.071 -0.8,1.34 -1.47,1.34 -1.21,0 -1.61,-1.469 -1.74,-2.269 -0.67,-3.872 -1.34,-8.84 -4.68,-9.239 -5.22,-0.672 -12.18,-0.531 -16.2,-0.531 -5.48,0 -6.68,0 -6.68,6.289 v 19.391" /><path
             id="path44"
             style="fill:#231f20;fill-opacity:1;fill-rule:nonzero;stroke:none"
             d="m 1219.02,521.66 -47.36,61.41 c -1.61,2.141 -2.68,4.02 -5.49,4.7 h -16.59 c -1.47,0 -3.21,-0.149 -3.21,-2.168 0,-1.454 2.15,-1.454 3.35,-1.454 9.36,0 8.69,-2.668 8.69,-11.117 v -54.699 c 0,-8.301 0.67,-11.113 -8.69,-11.113 -1.2,0 -3.48,0.39 -3.48,-1.34 0,-1.481 1.07,-2.02 2.41,-2.02 3.88,0 7.89,0.539 11.63,0.539 4.02,0 7.77,-0.539 11.78,-0.539 1.33,0 2.28,0.539 2.28,2.02 0,1.73 -2.15,1.34 -3.34,1.34 -9.37,0 -8.71,2.812 -8.71,11.113 v 60.469 l 56.2,-73.051 c 0.68,-1.078 1.88,-3.219 3.35,-3.219 1.2,0 0.92,1.867 0.92,2.551 v 67.949 c 0,8.309 -0.53,11.117 8.7,11.117 1.35,0 3.48,0 3.48,1.454 0,1.488 -1.06,2.168 -2.27,2.168 -3.88,0 -7.62,-0.551 -11.65,-0.551 -4,0 -7.75,0.551 -11.77,0.551 -1.34,0 -2.4,-0.68 -2.4,-2.168 0,-1.454 2.15,-1.454 3.35,-1.454 9.37,0 8.82,-2.668 8.82,-11.117 V 521.66" /><path
             id="path46"
             style="fill:#231f20;fill-opacity:1;fill-rule:nonzero;stroke:none"
             d="m 1269.42,518.332 c 0,-8.441 0.65,-11.113 -8.7,-11.113 -1.21,0 -3.35,0.121 -3.35,-1.617 0,-1.473 1.08,-1.743 2.27,-1.743 5.1,0 10.17,0.539 15.26,0.539 5.08,0 9.89,-0.539 14.97,-0.539 1.21,0 2.29,0.27 2.29,1.743 0,1.738 -2.29,1.617 -3.49,1.617 -9.22,0.121 -8.69,2.531 -8.69,11.113 v 54.848 c 0,8.422 -0.67,10.968 8.69,10.968 1.2,0 3.49,0 3.49,1.731 0,1.473 -1.08,1.891 -2.29,1.891 -5.08,0 -10.16,-0.551 -15.25,-0.551 -5.07,0 -9.88,0.551 -14.98,0.551 -1.33,0 -2.27,-0.418 -2.27,-1.891 0,-1.731 2.14,-1.731 3.35,-1.731 9.35,0 8.7,-2.546 8.7,-10.968 v -54.848" /><path
             id="path48"
             style="fill:#231f20;fill-opacity:1;fill-rule:evenodd;stroke:none"
             d="m 1400.21,546.41 c 0,-10.031 -2.02,-18.988 -8.31,-27.019 -6.42,-7.903 -15.52,-12.852 -25.81,-12.852 -10.17,0 -19.55,4.152 -25.97,11.902 -6.54,7.77 -8.96,17.938 -8.96,27.969 0,9.641 2.27,19.66 8.43,27.301 6.43,8.16 16.05,12.578 26.5,12.578 10.03,0 18.86,-4.547 25.29,-12.168 6.68,-8.172 8.83,-17.402 8.83,-27.711 z m -81.1,0 c 0,-24.351 22.63,-43.609 46.7,-43.609 25.42,0 46.58,17.789 46.58,43.609 0,25.82 -21.16,43.488 -46.58,43.488 -24.07,0 -46.7,-19.128 -46.7,-43.488 v 0" /><path
             id="path50"
             style="fill:#231f20;fill-opacity:1;fill-rule:nonzero;stroke:none"
             d="m 420.035,465.211 8.235,6.91 -24.954,29.738 29.743,24.95 -6.911,8.261 -29.746,-24.968 -24.832,29.589 -8.23,-6.91 24.828,-29.601 -29.594,-24.821 6.914,-8.25 29.59,24.84 24.957,-29.738 v 0" /><path
             id="path52"
             style="fill:#231f20;fill-opacity:1;fill-rule:evenodd;stroke:none"
             d="m 234.68,692.422 c -1.071,-0.09 -6.157,-1.012 -6.852,0.43 -0.523,1.058 3.426,4.757 3.965,5.48 l 24.492,27 c 0.356,0.168 2.61,2.816 3.324,3.168 1.969,0.961 3.442,-3.418 3.965,-4.488 l 10.035,-20.59 c 0.352,-0.711 3.856,-6.09 2.071,-6.961 -0.539,-0.25 -1.785,-0.422 -2.414,-0.512 l -38.586,-3.527 z m 57.218,5.308 c -7.75,-0.46 -7.949,-1.878 -11.437,5.282 l -11.871,24.34 c -4.192,8.578 -3.574,7.328 3.719,15.539 l 10.804,12.359 c 1.899,2.031 5.047,5.57 7.551,6.781 5.367,2.629 8.688,-4.179 10.953,-8.832 0.871,-1.789 2.528,-5.199 5.219,-3.879 1.605,0.77 0.914,2.66 0.391,3.739 -3.235,6.621 -7.266,13.07 -10.407,19.511 -3.84,7.871 -6.965,16.102 -10.804,23.969 -0.434,0.902 -1.489,2.609 -3.094,1.813 -2.688,-1.293 -1.027,-4.704 -0.156,-6.5 4.273,-8.762 -4.621,-16.872 -10.204,-23.141 L 200.355,688.75 c -0.898,-0.891 -2.875,-2.738 -2.175,-4.168 0.957,-1.973 3.722,-1.281 5.418,-1.121 l 106.504,9.187 c 4.007,0.411 13.82,1.204 17.453,0.102 3.64,-1.109 5.66,-4.328 7.23,-7.559 0.781,-1.609 2.445,-5 4.945,-3.793 3.047,1.493 -0.296,5.622 -1.168,7.411 -2.445,5.023 -5.609,9.66 -8.05,14.679 -2.446,5.012 -4.168,10.371 -6.61,15.383 -0.875,1.789 -2.093,4.301 -4.25,3.25 -2.504,-1.223 -0.843,-4.172 -0.05,-5.789 2,-4.133 5.304,-12.25 -0.598,-15.133 -3.223,-1.57 -7.68,-1.969 -11.066,-2.301 l -16.04,-1.168 v 0" /><path
             id="path54"
             style="fill:#231f20;fill-opacity:1;fill-rule:nonzero;stroke:none"
             d="m 139.316,879.23 c -5.117,-2.289 -7.828,-2.339 -7.933,-8.441 -0.195,-9.07 1.836,-23.07 4.609,-31.578 11.258,-34.66 47.481,-57.231 82.516,-45.84 33.512,10.891 53.187,47.641 41.988,82.109 -4.058,12.5 -10.152,22.231 -19.086,31.68 -4.754,4.961 -5.07,4.641 -11.062,3.11 l -15.653,-4.032 c -1.383,-0.25 -2.273,-1.367 -1.781,-2.886 1.664,-5.114 32.129,2.269 41.672,-27.071 4.984,-15.351 0.652,-29.73 -8.441,-42.312 -8.407,-11.539 -19.86,-19.438 -33.301,-23.821 -28.41,-9.218 -60.782,-2.367 -71.121,29.461 -9.539,29.34 14.211,38.731 12.609,43.661 -0.492,1.511 -1.621,1.781 -3.141,1.289 l -11.875,-5.329 v 0" /><path
             id="path56"
             style="fill:#231f20;fill-opacity:1;fill-rule:evenodd;stroke:none"
             d="m 141.445,969.75 c -1.047,0.23 -6.179,0.84 -6.429,2.422 -0.188,1.168 4.675,3.558 5.398,4.066 l 31.32,18.672 c 0.391,0.07 3.321,1.93 4.106,2.059 2.164,0.34 2.289,-4.27 2.476,-5.449 l 3.579,-22.622 c 0.125,-0.789 1.91,-6.957 -0.055,-7.269 -0.59,-0.09 -1.836,0.121 -2.453,0.223 l -37.942,7.898 z m 56.274,-11.648 c -7.543,1.839 -8.149,0.527 -9.395,8.386 l -4.23,26.75 c -1.496,9.442 -1.278,8.072 8.094,13.792 l 13.949,8.65 c 2.402,1.38 6.445,3.84 9.199,4.28 5.902,0.93 7.09,-6.54 7.894,-11.66 0.317,-1.96 0.903,-5.7 3.856,-5.23 1.769,0.28 1.652,2.29 1.469,3.46 -1.153,7.28 -3.125,14.62 -4.246,21.71 -1.371,8.64 -1.954,17.42 -3.329,26.08 -0.152,0.99 -0.66,2.93 -2.429,2.64 -2.946,-0.47 -2.36,-4.21 -2.043,-6.18 1.519,-9.62 -9.356,-14.77 -16.524,-19.14 l -92.429,-55.37 c -1.117,-0.571 -3.551,-1.758 -3.301,-3.329 0.34,-2.16 3.184,-2.332 4.851,-2.671 l 104.54,-22.34 c 3.953,-0.789 13.562,-2.891 16.714,-5.008 3.161,-2.133 4.149,-5.801 4.707,-9.352 0.286,-1.761 0.872,-5.511 3.629,-5.058 3.34,0.519 1.356,5.449 1.039,7.418 -0.871,5.511 -2.531,10.879 -3.402,16.402 -0.871,5.508 -0.957,11.129 -1.828,16.637 -0.316,1.953 -0.742,4.722 -3.109,4.351 -2.75,-0.441 -2.032,-3.75 -1.747,-5.531 0.719,-4.519 1.5,-13.258 -4.996,-14.289 -3.535,-0.551 -7.914,0.352 -11.25,1.039 l -15.683,3.563 v 0" /><path
             id="path58"
             style="fill:#231f20;fill-opacity:1;fill-rule:evenodd;stroke:none"
             d="m 107.961,1101.92 c -3.188,-0.06 -9.3516,-0.36 -11.7852,1.97 -3.0352,2.95 -3.6055,12.89 -3.6797,17.07 -0.6328,36.05 23.0159,61.96 60.0429,62.59 15.527,0.29 31.555,-5.21 43.09,-15.77 12.754,-11.93 16.187,-26.01 16.48,-42.73 0.297,-17.33 -3.808,-21.38 -21.527,-21.68 l -82.621,-1.45 z m 86.477,-14.23 c 12.742,0.24 17.101,1.31 17.347,-12.62 0.035,-2.01 -0.305,-5.2 2.281,-5.15 1.989,0.03 2.758,1.64 2.727,3.44 -0.074,4.18 -0.938,8.14 -1.012,12.53 -0.254,14.32 0.281,29.07 0.031,43.79 -0.339,19.33 -4.031,36.79 -17.234,51.49 -12.176,13.33 -29.832,20.79 -48.148,20.49 -19.114,-0.34 -36.852,-10.62 -47.942,-25.95 -10.8825,-15.13 -14.9528,-33.12 -14.6325,-51.44 0.1406,-7.95 3.3906,-57.1 10.5586,-56.97 1.1836,0.03 2.1719,0.83 2.1479,2.24 -0.035,1.98 -2.2886,5.73 -2.3667,9.9 -0.1328,7.77 8.0507,6.73 14.0237,6.82 l 82.219,1.43 v 0" /><path
             id="path60"
             style="fill:#231f20;fill-opacity:1;fill-rule:nonzero;stroke:none"
             d="m 112.922,1271.46 c -3.36,0.42 -7.785,0.36 -8.703,4.28 -0.801,3.32 0.269,12.01 0.66,15.18 0.82,6.7 1.863,15.2 4.641,21.49 2.777,6.27 6.675,8.6 13.168,10.81 l 5.898,2.29 c 1.453,0.42 4.117,0.9 4.336,2.67 0.246,1.99 -2.742,2.16 -3.93,2.3 l -16.996,2.09 c -2.566,0.32 -7.191,1.88 -7.648,-1.87 -2.067,-16.81 -3.313,-33.5 -5.3988,-50.5 -1.5078,-12.25 -3.8476,-24.79 -5.3554,-37.05 -0.2149,-1.8 0.5742,-3.49 2.5546,-3.74 2.3672,-0.28 2.7578,2.87 3.0039,4.86 1.6677,13.65 5.5317,12.36 17.7817,10.85 l 80.433,-9.88 c 12.649,-1.55 16.699,-1.25 15.02,-14.87 -0.239,-1.99 -0.43,-5.17 1.746,-5.45 2.172,-0.25 3.156,1.23 3.371,3.02 0.488,3.93 0.23,8.4 0.719,12.33 l 9.488,77.29 c 0.187,1.58 0.441,1.94 -0.918,2.31 l -20.586,5.54 c -1.535,0.58 -3.066,1.19 -4.648,1.36 -1.383,0.19 -2.247,-0.32 -2.418,-1.7 -0.289,-2.37 4.879,-4.42 6.191,-5.16 16.563,-8.87 15.621,-19.78 13.535,-36.78 -1.918,-15.61 -3.183,-24.29 -21.363,-22.06 l -34.383,4.22 c -6.726,0.85 -6.484,2.81 -5.508,10.73 0.727,5.91 1.989,16.19 4.711,23.67 1.524,4.24 7.649,5.08 13.496,5.37 1.211,0.05 3.457,0.38 3.684,2.16 0.113,0.99 -0.133,2.22 -3.293,2.62 -6.352,0.56 -12.328,0.9 -18.699,1.28 -5.485,1.07 -11.367,2.2 -16.875,3.08 -1.578,0.18 -2.121,-0.94 -2.242,-1.93 -0.219,-1.77 1.882,-2.63 3.043,-2.98 5.601,-1.7 12.8,-3.59 12.785,-8.59 0.047,-7.82 -1.414,-18.09 -2.149,-24.01 -0.988,-8.1 -1.211,-9.9 -10.496,-8.74 l -28.656,3.51 v 0" /><path
             id="path62"
             style="fill:#231f20;fill-opacity:1;fill-rule:nonzero;stroke:none"
             d="m 126.27,1411.38 c -3.383,-0.33 -5.938,0.15 -6.915,-3.5 l -5.98,-22.32 c -0.566,-2.11 -2.457,-5.31 0.625,-6.14 2.688,-0.72 3.797,1.88 4.312,3.78 2.782,10.39 4.137,10.85 13.75,7.45 l 83.598,-28.79 c 9.266,-3.11 14.113,-5.02 11.231,-15.79 -0.465,-1.73 -1.149,-5.05 1.16,-5.67 1.922,-0.5 2.668,0.72 3.133,2.45 1.492,5.58 2.269,11.56 3.816,17.32 1.547,5.79 3.863,11.35 5.41,17.12 0.457,1.73 1.129,4.22 -1.176,4.85 -2.691,0.72 -3.582,-3.37 -4.097,-5.29 -3.657,-13.66 -13.418,-10.83 -24.942,-6.92 l -77.746,26.82 0.36,1.34 107.66,11.76 c 1.449,0.02 3.918,-0.03 4.433,1.9 0.457,1.72 -1.5,2.87 -2.695,3.8 l -88.57,69.5 0.363,1.35 87.121,-23.34 c 3.469,-0.92 10.688,-2.45 12.5,-6.44 1.164,-2.59 1.047,-6.88 0.27,-9.76 -0.512,-1.93 -1.977,-5.86 0.906,-6.63 2.113,-0.57 2.875,1.5 3.285,3.03 2.012,7.51 3.301,15.4 5.363,23.09 1.649,6.15 4.071,12.1 5.719,18.26 0.41,1.54 0.781,3.71 -1.332,4.27 -2.883,0.78 -3.578,-3.36 -4.094,-5.28 -0.726,-2.7 -1.687,-5.53 -4.508,-6.83 -3.312,-1.59 -10.953,0.66 -14.035,1.48 l -79.429,21.29 c -3.461,0.92 -11.164,2.17 -13.243,5.2 -1.656,2.29 0.055,6.37 0.731,8.87 0.512,1.92 0.848,4.72 -1.848,5.44 -3.07,0.82 -3.039,-2.89 -3.601,-5.01 l -5.727,-21.35 c -0.562,-2.11 -1.078,-4.04 1.11,-5.87 l 80.164,-63.93 -97.082,-11.51 v 0" /><path
             id="path64"
             style="fill:#231f20;fill-opacity:1;fill-rule:nonzero;stroke:none"
             d="m 266.758,1527.85 c 11.633,-4.7 15.699,-5.27 10.472,-18.19 -0.668,-1.66 -2.05,-4.54 0.352,-5.51 2.031,-0.82 3,0.5 3.668,2.17 2.832,7.01 4.934,14.32 7.77,21.34 2.832,7.02 6.253,13.36 9.089,20.37 0.664,1.67 0.899,3.29 -1.136,4.12 -2.399,0.96 -3.481,-2.25 -4.153,-3.9 -5.332,-12.67 -8.355,-10.59 -20.168,-5.82 l -75.687,30.59 c -11.637,4.69 -15.516,5.18 -10.293,18.12 0.672,1.66 1.937,4.79 -0.465,5.75 -2.031,0.83 -3.18,-0.43 -3.848,-2.09 -2.839,-7.01 -4.933,-14.32 -7.769,-21.34 -2.832,-7.01 -6.254,-13.37 -9.094,-20.39 -0.738,-1.83 -0.711,-3.35 1.32,-4.17 2.403,-0.97 3.59,1.99 4.262,3.65 5.223,12.92 8.356,10.58 19.992,5.88 l 75.688,-30.58 v 0" /><path
             id="path66"
             style="fill:#231f20;fill-opacity:1;fill-rule:evenodd;stroke:none"
             d="m 250.25,1656.75 c -0.68,0.82 -4.355,4.46 -3.578,5.84 0.574,1.05 5.871,-0.06 6.762,-0.1 l 36.171,-4.57 c 0.352,-0.2 3.813,-0.51 4.504,-0.91 1.922,-1.06 -0.824,-4.77 -1.398,-5.81 l -11.106,-20.04 c -0.382,-0.69 -2.777,-6.65 -4.519,-5.68 -0.524,0.29 -1.379,1.22 -1.797,1.68 l -25.039,29.59 z m 37.172,-43.84 c -4.82,6.09 -6.094,5.44 -2.231,12.39 l 13.125,23.7 c 4.633,8.35 3.957,7.14 14.868,5.87 l 16.324,-1.76 c 2.742,-0.39 7.445,-0.95 9.883,-2.3 5.222,-2.89 1.554,-9.51 -0.953,-14.04 -0.965,-1.74 -2.797,-5.05 -0.184,-6.49 1.566,-0.87 2.703,0.77 3.285,1.82 3.566,6.44 6.543,13.44 10.016,19.71 4.246,7.66 9.191,14.94 13.433,22.6 0.492,0.87 1.278,2.71 -0.293,3.57 -2.609,1.46 -4.441,-1.85 -5.41,-3.59 -4.73,-8.53 -16.469,-5.9 -24.808,-4.93 l -106.918,13.3 c -1.235,0.22 -3.887,0.77 -4.661,-0.62 -1.062,-1.91 1.09,-3.78 2.196,-5.08 l 68.613,-81.97 c 2.637,-3.05 8.906,-10.63 10.086,-14.23 1.187,-3.62 -0.297,-7.13 -2.035,-10.27 -0.867,-1.56 -2.703,-4.86 -0.266,-6.22 2.961,-1.64 4.426,3.47 5.395,5.21 2.699,4.87 4.707,10.14 7.406,15.01 2.703,4.88 6.102,9.37 8.809,14.25 0.96,1.74 2.312,4.18 0.222,5.33 -2.433,1.35 -3.898,-1.71 -4.769,-3.28 -2.223,-4 -6.993,-11.37 -12.739,-8.18 -3.136,1.73 -6.019,5.16 -8.222,7.75 l -10.172,12.45 v 0" /><path
             id="path68"
             style="fill:#231f20;fill-opacity:1;fill-rule:nonzero;stroke:none"
             d="m 416.137,1831.61 c 13.508,6.07 26.468,8.87 38.304,-1.79 11.692,-10.52 9.383,-28.27 -0.609,-39.37 -12.129,-13.47 -26.25,-13.08 -40.309,-3.09 -1.312,0.91 -5.007,4.24 -6.742,2.32 -1.469,-1.63 -0.093,-3.68 0.957,-4.88 3.45,-3.91 7.149,-7.25 10.992,-10.71 2.672,-2.4 6.266,-6.44 10.153,-5.39 9.301,2.89 19.363,9.9 25.89,17.15 7.727,8.59 13.102,19.01 13.625,30.6 0.403,11.16 -3.398,21.82 -11.687,29.28 -6.359,5.73 -15.402,8.79 -24.008,8.75 -7.039,-0.09 -15.746,-3.51 -22.359,-6.39 -12.801,-5.89 -32.641,-17.5 -45.364,-6.04 -10.8,9.72 -7.441,23.57 1.36,33.34 10.383,11.54 19.859,11.06 33,5.12 1.437,-0.49 4.066,-2.33 5.539,-0.71 0.926,1.05 0.723,2.3 -0.313,3.24 -3.98,3.31 -8.089,6.48 -12.078,9.8 -2.793,2.25 -4.304,4.14 -7.871,2.26 -7.144,-3.48 -15.91,-11.12 -21.105,-16.89 -13.059,-14.51 -16.242,-37.09 -0.707,-51.08 13.168,-11.85 28.828,-6.67 43.289,-0.13 l 10.043,4.61 v 0" /><path
             id="path70"
             style="fill:#231f20;fill-opacity:1;fill-rule:nonzero;stroke:none"
             d="m 504.059,1993 c -4.176,3.74 -5.321,6.2 -10.938,3.81 -8.363,-3.52 -20.324,-11.06 -26.976,-17.05 -27.083,-24.38 -32.961,-66.65 -8.317,-94.03 23.59,-26.19 65.156,-29.21 92.082,-4.97 9.77,8.8 16.195,18.33 21.195,30.33 2.586,6.34 2.172,6.51 -1.667,11.36 l -10.047,12.66 c -0.786,1.16 -2.18,1.52 -3.356,0.46 -4,-3.59 15.141,-28.43 -7.793,-49.09 -11.988,-10.78 -26.89,-12.68 -42.086,-9.48 -13.945,2.98 -25.836,10.23 -35.293,20.75 -19.98,22.18 -26.883,54.54 -2.023,76.93 22.933,20.65 41.172,2.78 45.015,6.25 1.188,1.05 0.957,2.19 -0.105,3.38 l -9.691,8.69 v 0" /><path
             id="path72"
             style="fill:#231f20;fill-opacity:1;fill-rule:nonzero;stroke:none"
             d="m 601.172,1949.46 c 7.195,-10.27 10.293,-12.98 -1.121,-20.96 -1.473,-1.03 -4.192,-2.69 -2.711,-4.82 1.258,-1.79 2.793,-1.2 4.262,-0.18 6.195,4.34 11.937,9.34 18.132,13.68 6.2,4.35 12.532,7.79 18.727,12.13 1.473,1.03 2.547,2.27 1.289,4.07 -1.484,2.12 -4.145,0.01 -5.613,-1.02 -11.367,-7.72 -12.77,-4.32 -20.078,6.12 l -46.825,66.88 c -7.199,10.27 -10.183,12.8 1.239,20.79 1.465,1.02 4.238,2.96 2.757,5.09 -1.265,1.8 -2.91,1.37 -4.375,0.35 -6.203,-4.35 -11.937,-9.34 -18.132,-13.68 -6.203,-4.35 -12.532,-7.8 -18.727,-12.14 -1.633,-1.14 -2.434,-2.43 -1.172,-4.22 1.481,-2.13 4.09,-0.29 5.555,0.73 11.422,7.99 12.773,4.33 19.973,-5.96 l 46.82,-66.86 v 0" /><path
             id="path74"
             style="fill:#231f20;fill-opacity:1;fill-rule:nonzero;stroke:none"
             d="m 633.902,2074.52 c -1.636,2.97 -4.289,6.51 -1.652,9.57 2.203,2.58 9.867,6.83 12.652,8.38 5.922,3.28 13.414,7.43 20.121,8.87 6.715,1.45 10.891,-0.34 16.497,-4.29 l 5.312,-3.43 c 1.195,-0.92 3.152,-2.8 4.723,-1.93 1.742,0.96 0.117,3.47 -0.465,4.52 l -8.301,14.97 c -1.258,2.27 -2.699,6.93 -6.008,5.1 -14.804,-8.2 -29.047,-17.01 -44.027,-25.31 -10.789,-5.99 -22.324,-11.47 -33.121,-17.45 -1.567,-0.88 -2.481,-2.51 -1.512,-4.26 1.16,-2.08 3.941,-0.54 5.684,0.42 12.015,6.67 13.25,2.79 19.238,-8 l 39.285,-70.88 c 6.18,-11.14 8.809,-14.24 -3.207,-20.91 -1.742,-0.96 -4.433,-2.67 -3.375,-4.59 1.063,-1.91 2.844,-1.85 4.414,-0.97 3.485,1.93 6.926,4.75 10.406,6.68 l 68.094,37.75 c 1.395,0.77 1.832,0.78 1.336,2.1 l -7.617,19.91 c -0.43,1.58 -0.852,3.17 -1.625,4.57 -0.672,1.21 -1.582,1.62 -2.805,0.95 -2.09,-1.17 -0.703,-6.55 -0.547,-8.05 2.575,-18.6 -6.812,-24.26 -21.789,-32.57 -13.758,-7.62 -21.515,-11.7 -30.394,4.32 l -16.797,30.31 c -3.281,5.92 -1.543,6.88 5.426,10.75 5.222,2.89 14.281,7.91 21.945,10.1 4.305,1.26 8.598,-3.19 12.269,-7.76 0.75,-0.95 2.333,-2.57 3.903,-1.7 0.867,0.48 1.723,1.4 0.18,4.19 -3.262,5.48 -6.508,10.5 -9.95,15.89 -2.351,5.07 -4.898,10.48 -7.425,15.46 -0.778,1.39 -2.012,1.16 -2.883,0.68 -1.571,-0.87 -1.028,-3.07 -0.621,-4.23 1.925,-5.52 4.629,-12.44 0.566,-15.38 -6.309,-4.64 -15.465,-9.48 -20.687,-12.38 -7.141,-3.95 -8.707,-4.82 -13.247,3.35 l -13.996,25.25 v 0" /><path
             id="path76"
             style="fill:#231f20;fill-opacity:1;fill-rule:nonzero;stroke:none"
             d="m 853.062,2084.81 -98.554,60.07 c -3.375,2.11 -5.86,4.15 -10.117,3.57 l -23.051,-8.84 c -2.043,-0.79 -4.391,-1.9 -3.32,-4.7 0.785,-2.03 3.757,-0.89 5.433,-0.25 13.008,5 13.504,0.92 18,-10.79 l 29.188,-76.03 c 4.421,-11.52 6.847,-15.07 -6.161,-20.06 -1.671,-0.66 -5.046,-1.3 -4.121,-3.73 0.789,-2.04 2.563,-2.21 4.414,-1.5 5.395,2.07 10.688,4.96 15.887,6.95 5.574,2.15 11.07,3.4 16.645,5.55 1.859,0.7 2.875,1.95 2.09,4 -0.922,2.42 -3.688,0.72 -5.364,0.07 -13.008,-5 -13.578,-0.73 -18,10.79 l -32.254,84.02 117.035,-71.53 c 1.497,-1.13 4.317,-3.46 6.36,-2.67 1.672,0.64 0.301,3.09 -0.059,4.04 l -36.25,94.42 c -4.422,11.52 -6.664,15.14 6.164,20.07 1.856,0.71 4.828,1.85 4.047,3.9 -0.785,2.04 -2.629,2.4 -4.301,1.76 -5.39,-2.07 -10.312,-4.81 -15.89,-6.95 -5.574,-2.14 -11.063,-3.4 -16.641,-5.54 -1.859,-0.71 -2.988,-2.22 -2.207,-4.27 0.793,-2.04 3.766,-0.89 5.438,-0.25 13.011,5 13.695,0.99 18.191,-10.72 l 27.398,-71.38 v 0" /><path
             id="path78"
             style="fill:#231f20;fill-opacity:1;fill-rule:nonzero;stroke:none"
             d="m 936.266,2192.7 c -2.11,9.93 -2.032,9.54 6.73,11.41 l 11.301,2.4 c 6.035,1.28 11.488,2.44 16.851,-1.72 3.707,-3.08 6.223,-8.24 8.461,-12.03 0.641,-1.09 1.36,-2.57 2.727,-2.27 2.137,0.46 1.961,2.24 1.629,3.8 l -3.883,24.01 c -0.293,1.36 -0.516,7.22 -3.246,6.64 -1.941,-0.42 -1.965,-2.26 -2.211,-3.94 -0.793,-5.86 -5.863,-5.93 -10.93,-7 l -70.699,-15.02 c -3.113,-0.67 -7.082,-2.12 -10.066,-0.52 -1.809,0.84 -1.868,2.05 -2.434,3.76 -0.242,1.17 -1.031,2.03 -2.203,1.78 -1.754,-0.38 -1.852,-1.83 -1.953,-3.27 l -2.215,-26.94 c -0.184,-1.06 -0.465,-3.56 -0.176,-4.91 0.289,-1.38 1.086,-2.23 2.442,-1.93 1.953,0.41 2.804,4.05 3.293,5.58 6.039,17.58 12.871,20.86 30.593,24.62 6.035,1.29 8.282,3.19 9.774,-3.83 l 19.168,-90.17 c 2.605,-12.27 4.41,-15.95 -9.223,-18.86 -1.754,-0.37 -4.914,-0.84 -4.375,-3.37 0.453,-2.14 2.098,-2.2 3.852,-1.82 7.398,1.57 14.632,3.92 22.035,5.49 7.402,1.58 14.582,2.29 21.976,3.86 1.754,0.37 3.235,1.09 2.778,3.24 -0.539,2.53 -3.813,1.64 -5.563,1.26 -13.437,-2.86 -13.449,1 -16.094,13.47 l -18.339,86.28 v 0" /><path
             id="path80"
             style="fill:#231f20;fill-opacity:1;fill-rule:nonzero;stroke:none"
             d="m 1035.59,2121.41 c 1.53,-12.44 3,-16.28 -10.83,-17.98 -1.78,-0.21 -4.97,-0.4 -4.65,-2.98 0.27,-2.17 1.89,-2.37 3.67,-2.15 7.51,0.92 14.93,2.63 22.44,3.55 7.51,0.93 14.72,1.01 22.23,1.93 1.77,0.22 3.31,0.81 3.04,2.99 -0.31,2.57 -3.65,1.96 -5.43,1.74 -13.66,-1.47 -13.31,2.18 -14.86,14.82 l -9.95,81.03 c -1.53,12.45 -2.97,16.09 10.86,17.78 1.78,0.22 5.14,0.64 4.82,3.2 -0.26,2.17 -1.92,2.57 -3.7,2.36 -7.51,-0.93 -14.92,-2.63 -22.43,-3.56 -7.51,-0.91 -14.73,-1 -22.24,-1.93 -1.97,-0.24 -3.28,-1 -3.01,-3.18 0.31,-2.57 3.48,-2.17 5.26,-1.96 13.83,1.7 13.3,-2.18 14.83,-14.62 l 9.95,-81.04 v 0" /><path
             id="path82"
             style="fill:#231f20;fill-opacity:1;fill-rule:evenodd;stroke:none"
             d="m 1138.64,2199.89 c 0.38,1 1.69,6 3.28,6.04 1.2,0.01 2.87,-5.13 3.29,-5.92 l 14.13,-33.62 c 0.01,-0.39 1.45,-3.55 1.47,-4.34 0.03,-2.2 -4.56,-1.69 -5.75,-1.7 l -22.89,-0.4 c -0.8,-0.02 -7.16,-0.92 -7.19,1.06 -0.01,0.6 0.37,1.81 0.56,2.4 l 13.1,36.48 z m -19.37,-54.1 c 2.86,7.21 1.66,7.99 9.62,8.12 l 27.07,0.48 c 9.56,0.16 8.16,0.15 12.52,-9.94 l 6.63,-15.02 c 1.05,-2.57 2.91,-6.92 2.96,-9.71 0.1,-5.97 -7.46,-6.1 -12.63,-6.19 -1.99,-0.03 -5.78,-0.1 -5.72,-3.08 0.03,-1.8 2.02,-1.96 3.21,-1.94 7.37,0.13 14.93,1.06 22.08,1.19 8.77,0.15 17.54,-0.5 26.3,-0.35 1,0.02 2.98,0.25 2.95,2.05 -0.05,2.98 -3.83,2.91 -5.83,2.89 -9.74,-0.18 -13.34,11.31 -16.64,19.01 l -41.97,99.24 c -0.42,1.19 -1.26,3.76 -2.85,3.75 -2.19,-0.05 -2.74,-2.86 -3.31,-4.45 l -36.68,-100.41 c -1.33,-3.81 -4.76,-13.02 -7.29,-15.87 -2.55,-2.83 -6.32,-3.29 -9.9,-3.35 -1.79,-0.03 -5.58,-0.09 -5.53,-2.88 0.06,-3.39 5.21,-2.11 7.21,-2.07 5.57,0.1 11.13,1 16.7,1.09 5.58,0.1 11.17,-0.59 16.74,-0.51 1.99,0.04 4.78,0.09 4.74,2.48 -0.05,2.78 -3.43,2.53 -5.22,2.5 -4.59,-0.09 -13.35,0.37 -13.47,6.93 -0.06,3.58 1.46,7.8 2.6,11 l 5.71,15.04 v 0" /><path
             id="path84"
             style="fill:#231f20;fill-opacity:1;fill-rule:evenodd;stroke:none"
             d="m 1272.93,2207.1 c 1.71,13.83 2.34,15.76 17.37,13.9 17.58,-2.14 27.24,-13.38 25.01,-31.55 -0.98,-7.9 -4.44,-14.89 -11.57,-19.04 -8.21,-4.81 -16.42,-4.6 -25.5,-3.49 -3.37,0.42 -10.25,-0.15 -9.65,4.79 l 4.34,35.39 z m -25.76,-80.69 c -1.52,-12.46 -1.02,-16.53 -14.85,-14.84 -1.78,0.22 -4.91,0.81 -5.24,-1.76 -0.26,-2.17 1.28,-2.76 3.06,-2.98 7.51,-0.93 15.1,-1.06 22.61,-1.98 7.53,-0.91 14.53,-2.59 22.05,-3.51 1.78,-0.21 3.41,-0.01 3.67,2.16 0.31,2.58 -3.06,2.79 -4.85,3.01 -13.61,1.87 -12.39,5.32 -10.83,17.98 l 3.73,30.43 c 0.23,1.78 0.61,6.55 1.97,7.78 1.14,1.06 2.88,0.66 4.46,0.46 15.03,-1.84 14.64,-3.41 20.05,-18.11 l 14.63,-40.91 c 1.23,-3.17 1.95,-7.06 5.91,-7.55 l 20.94,-2.57 c 1.59,-0.2 3.58,-0.24 3.83,1.73 0.34,2.77 -3.21,3.21 -4.8,3.4 -8.7,1.07 -10.75,8.94 -13.46,16.3 l -12.22,32.8 c -2.13,5.47 -4.24,12.74 -10.45,14.52 16.67,0.15 32.78,8.82 34.99,26.79 2.56,20.76 -14.89,32.32 -33.66,34.63 -11.28,1.38 -22.43,1.96 -33.89,3.36 -6.33,0.78 -12.94,2.38 -19.27,3.17 -2.18,0.27 -3.65,-0.36 -3.92,-2.53 -0.29,-2.37 2.87,-2.76 4.64,-2.98 13.85,-1.7 12.39,-5.33 10.83,-17.98 l -9.93,-80.82 v 0" /><path
             id="path86"
             style="fill:#231f20;fill-opacity:1;fill-rule:nonzero;stroke:none"
             d="m 1418.59,2098.55 -12.51,90.97 c -0.34,2.56 -1.16,5.67 -0.45,8.36 0.93,3.45 9.11,0.85 10.49,0.69 1.59,-0.22 3.96,-0.64 4.57,1.66 0.62,2.31 -1.29,2.81 -3.04,3.29 -5.96,1.59 -11.93,2.37 -17.7,3.91 -6.91,1.87 -13.27,4.38 -20.18,6.23 -1.72,0.47 -4.09,0.9 -4.66,-1.22 -0.76,-2.89 2.5,-3.76 4.43,-4.27 8.83,-2.37 9.56,-8.96 10.58,-16.65 l 14.91,-109.75 c 0.28,-1.31 0.1,-5.79 2.03,-6.31 1.53,-0.41 3.82,3.51 4.51,4.57 l 65.25,85.79 c 2.62,3.62 6.85,8.66 10.71,10.73 2.83,1.31 5.86,1.11 8.55,0.39 1.74,-0.46 4.72,-0.85 5.33,1.45 0.47,1.73 -0.47,2.81 -2.01,3.22 -5.39,1.45 -10.97,2.12 -16.36,3.57 -5.39,1.44 -10.95,3.75 -16.34,5.19 -1.93,0.52 -4.38,0.56 -5.01,-1.75 -0.76,-2.87 6.12,-4.11 7.87,-4.57 3.44,-0.93 7.81,-3.13 6.62,-7.55 -0.78,-2.89 -3.64,-6.65 -5.33,-9.09 l -52.26,-68.86 v 0" /><path
             id="path88"
             style="fill:#231f20;fill-opacity:1;fill-rule:nonzero;stroke:none"
             d="m 1563.74,2150.38 c 0.2,3.39 1.06,5.84 -2.4,7.38 l -21.1,9.4 c -2.01,0.88 -4.87,3.25 -6.15,0.34 -1.14,-2.54 1.23,-4.04 3.06,-4.85 9.82,-4.38 10.06,-5.8 5.2,-14.74 l -41.52,-78.07 c -4.51,-8.67 -7.16,-13.16 -17.35,-8.62 -1.63,0.72 -4.8,1.92 -5.77,-0.27 -0.81,-1.82 0.3,-2.74 1.93,-3.48 5.28,-2.34 11.06,-4.05 16.51,-6.47 5.45,-2.44 10.59,-5.59 16.06,-8.02 1.63,-0.73 3.99,-1.78 4.98,0.41 1.11,2.54 -2.79,4.06 -4.6,4.86 -12.92,5.77 -8.61,14.95 -2.94,25.73 l 38.65,72.59 1.27,-0.57 -5.23,-108.17 c -0.2,-1.44 -0.62,-3.87 1.19,-4.67 1.64,-0.73 3.08,1.02 4.2,2.06 l 82.48,76.6 1.28,-0.56 -36.69,-82.4 c -1.46,-3.29 -4.08,-10.18 -8.32,-11.34 -2.73,-0.75 -6.94,0.05 -9.69,1.26 -1.8,0.81 -5.47,2.87 -6.69,0.14 -0.89,-1.99 1.03,-3.06 2.49,-3.72 7.11,-3.15 14.7,-5.67 21.98,-8.9 5.82,-2.6 11.31,-5.92 17.13,-8.51 1.45,-0.65 3.54,-1.36 4.44,0.64 1.2,2.74 -2.78,4.07 -4.6,4.88 -2.55,1.14 -5.2,2.53 -6.04,5.53 -1.05,3.52 2.37,10.71 3.67,13.62 l 33.44,75.11 c 1.47,3.29 3.89,10.71 7.22,12.28 2.53,1.27 6.28,-1.05 8.63,-2.12 1.83,-0.8 4.54,-1.57 5.67,0.98 1.31,2.9 -2.38,3.45 -4.39,4.35 l -20.18,8.98 c -1.99,0.9 -3.82,1.7 -5.97,-0.17 l -75.69,-69.18 3.84,97.69 v 0" /><path
             id="path90"
             style="fill:#231f20;fill-opacity:1;fill-rule:nonzero;stroke:none"
             d="m 1801.53,2004.78 c 2.05,2.71 4.2,6.57 8.06,5.4 3.27,-0.96 10.27,-6.22 12.81,-8.14 5.41,-4.09 12.24,-9.24 16.3,-14.78 4.03,-5.54 4.11,-10.09 2.78,-16.81 l -0.98,-6.25 c -0.35,-1.48 -1.26,-4.01 0.16,-5.09 1.6,-1.2 3.22,1.3 3.94,2.25 l 10.31,13.68 c 1.57,2.07 5.23,5.28 2.21,7.56 -13.52,10.18 -27.34,19.62 -41.02,29.92 -9.87,7.42 -19.56,15.73 -29.43,23.17 -1.43,1.08 -3.29,1.23 -4.5,-0.35 -1.43,-1.91 1.11,-3.83 2.7,-5.02 10.96,-8.28 7.95,-10.98 0.51,-20.84 l -48.76,-64.72 c -7.67,-10.17 -9.44,-13.83 -20.41,-5.56 -1.59,1.19 -4.24,2.94 -5.57,1.2 -1.32,-1.75 -0.52,-3.33 0.91,-4.42 3.17,-2.4 7.16,-4.39 10.33,-6.78 l 62.18,-46.87 c 1.27,-0.95 1.47,-1.35 2.46,-0.37 l 15.1,15.07 c 1.28,1.03 2.55,2.06 3.51,3.34 0.82,1.11 0.83,2.11 -0.27,2.95 -1.92,1.43 -6.27,-2.02 -7.57,-2.78 -15.95,-9.91 -24.95,-3.64 -38.63,6.66 -12.56,9.47 -19.43,14.91 -8.41,29.53 l 20.85,27.67 c 4.07,5.4 5.67,4.21 12.04,-0.59 4.76,-3.58 13.03,-9.82 18.14,-15.92 2.9,-3.44 0.59,-9.16 -2.1,-14.37 -0.56,-1.09 -1.38,-3.19 0.03,-4.27 0.8,-0.6 1.99,-1 3.92,1.55 3.67,5.2 6.95,10.21 10.47,15.54 3.66,4.22 7.58,8.74 11.09,13.07 0.96,1.28 0.24,2.32 -0.54,2.92 -1.45,1.08 -3.24,-0.31 -4.11,-1.15 -4.28,-4.02 -9.5,-9.3 -13.84,-6.77 -6.79,3.88 -14.95,10.26 -19.72,13.86 -6.52,4.91 -7.94,5.98 -2.32,13.46 l 17.37,23.05 v 0" /><path
             id="path92"
             style="fill:#231f20;fill-opacity:1;fill-rule:nonzero;stroke:none"
             d="m 1923.99,1896.61 c 7.3,7.06 7.02,6.78 13.25,0.33 l 8.01,-8.3 c 4.3,-4.45 8.16,-8.45 7.48,-15.21 -0.65,-4.77 -3.69,-9.65 -5.72,-13.54 -0.59,-1.12 -1.45,-2.52 -0.49,-3.51 1.53,-1.59 2.94,-0.47 4.1,0.62 l 18.31,16.02 c 0.99,0.96 5.83,4.26 3.9,6.27 -1.38,1.43 -2.94,0.46 -4.51,-0.2 -5.4,-2.45 -8.13,1.82 -11.73,5.54 l -50.21,52 c -2.2,2.3 -5.54,4.9 -5.75,8.27 -0.25,1.97 0.73,2.65 1.89,4.05 0.86,0.83 1.16,1.94 0.34,2.82 -1.25,1.28 -2.53,0.59 -3.81,-0.08 l -24.03,-12.4 c -0.98,-0.41 -3.25,-1.49 -4.26,-2.46 -1,-0.97 -1.3,-2.09 -0.34,-3.09 1.39,-1.43 4.93,-0.22 6.49,0.16 18.09,4.2 24.5,0.14 37.1,-12.89 4.28,-4.44 7.07,-5.34 1.93,-10.31 l -66.32,-64.04 c -9.03,-8.71 -11.2,-12.2 -20.89,-2.17 -1.24,1.29 -3.31,3.72 -5.18,1.91 -1.57,-1.52 -0.75,-2.94 0.5,-4.23 5.25,-5.43 11.08,-10.33 16.34,-15.77 5.25,-5.44 9.66,-11.15 14.92,-16.6 1.25,-1.28 2.62,-2.15 4.22,-0.64 1.85,1.81 -0.65,4.1 -1.89,5.4 -9.54,9.87 -6.26,11.94 2.91,20.78 l 63.44,61.27 v 0" /><path
             id="path94"
             style="fill:#231f20;fill-opacity:1;fill-rule:nonzero;stroke:none"
             d="m 2049.6,1729.1 c 10.64,6.65 13.32,9.49 20.71,-2.33 0.94,-1.51 2.74,-4.38 4.93,-3.01 1.87,1.15 1.54,2.82 0.59,4.35 -4.02,6.41 -8.7,12.41 -12.7,18.83 -4.01,6.41 -7.15,12.91 -11.16,19.32 -1.04,1.69 -2.29,2.56 -4.16,1.4 -2.19,-1.37 -0.5,-4.07 0.46,-5.59 7.37,-11.83 3.64,-12.98 -7.01,-19.63 l -69.06,-43.15 c -10.63,-6.65 -13.31,-9.5 -20.59,2.15 -1.05,1.69 -2.75,4.39 -4.94,3.02 -1.69,-1.07 -1.53,-2.83 -0.57,-4.35 3.59,-5.74 7.65,-10.72 11.23,-16.47 10.13,-16.2 19.78,-33.18 29.92,-49.38 2.84,-4.56 4.66,-2.96 9.15,-0.38 6.02,3.52 12.98,5.52 18.73,9.11 1.18,0.74 2.36,1.47 1.42,3 -0.64,1.01 -2.4,0.85 -3.47,0.65 -5.71,-0.99 -13.85,-1.85 -19.5,0.02 -6.83,2.31 -13.38,9.02 -17.18,15.09 -9.5,15.2 -3.62,19.34 9.2,27.36 l 64,39.99 v 0" /><path
             id="path96"
             style="fill:#231f20;fill-opacity:1;fill-rule:nonzero;stroke:none"
             d="m 2025.67,1607.96 c -11.29,-5.5 -14.42,-8.13 -20.54,4.4 -0.79,1.61 -2,4.56 -4.31,3.42 -1.98,-0.97 -1.65,-2.57 -0.86,-4.17 3.33,-6.8 7.34,-13.26 10.67,-20.06 3.31,-6.8 5.75,-13.6 9.05,-20.4 0.79,-1.61 1.84,-2.86 3.81,-1.9 2.34,1.13 0.68,4.09 -0.12,5.7 -5.84,12.44 -2.27,13.3 9.19,18.87 l 73.36,35.79 c 11.28,5.5 14.24,8.05 20.36,-4.48 0.78,-1.61 2.27,-4.65 4.59,-3.52 1.97,0.97 1.81,2.66 1.02,4.28 -3.32,6.8 -7.35,13.25 -10.66,20.05 -3.31,6.8 -5.75,13.6 -9.06,20.39 -0.88,1.79 -2.02,2.78 -4,1.82 -2.33,-1.13 -0.92,-4 -0.15,-5.61 6.14,-12.52 2.29,-13.29 -8.99,-18.79 l -73.36,-35.79 v 0" /><path
             id="path98"
             style="fill:#231f20;fill-opacity:1;fill-rule:nonzero;stroke:none"
             d="m 2155.69,1533.68 c 9.47,3.63 9.1,3.48 12.31,-4.88 l 4.13,-10.78 c 2.24,-5.76 4.22,-10.97 0.97,-16.91 -2.47,-4.15 -7.18,-7.45 -10.58,-10.24 -0.98,-0.8 -2.32,-1.75 -1.81,-3.05 0.77,-2.05 2.52,-1.58 4.01,-1.02 l 23.11,7.6 c 1.31,0.49 7.04,1.64 6.05,4.24 -0.72,1.86 -2.53,1.58 -4.24,1.57 -5.91,-0.14 -6.76,4.86 -8.62,9.7 l -25.92,67.48 c -1.12,2.97 -3.18,6.66 -2.07,9.86 0.56,1.92 1.73,2.16 3.33,2.98 1.13,0.44 1.83,1.35 1.41,2.46 -0.65,1.68 -2.08,1.55 -3.54,1.42 l -26.94,-2.02 c -1.08,0.01 -3.58,-0.11 -4.9,-0.61 -1.3,-0.49 -2.01,-1.41 -1.51,-2.71 0.72,-1.86 4.46,-2.13 6.04,-2.38 18.3,-3.21 22.6,-9.44 29.1,-26.36 2.2,-5.76 4.43,-7.68 -2.25,-10.25 l -86.07,-33.03 c -11.72,-4.5 -15.06,-6.86 -20.07,6.16 -0.64,1.67 -1.59,4.71 -4.01,3.79 -2.03,-0.79 -1.86,-2.41 -1.21,-4.09 2.71,-7.06 6.17,-13.84 8.88,-20.9 2.72,-7.07 4.54,-14.05 7.25,-21.1 0.64,-1.68 1.59,-3.02 3.63,-2.24 2.42,0.92 1.01,4.01 0.37,5.69 -4.92,12.83 -1.1,13.44 10.8,18 l 82.35,31.62 v 0" /><path
             id="path100"
             style="fill:#231f20;fill-opacity:1;fill-rule:nonzero;stroke:none"
             d="m 2188.63,1429.19 c 3.28,0.82 7.4,2.46 9.67,-0.88 1.92,-2.79 4.03,-11.29 4.81,-14.39 1.64,-6.57 3.71,-14.87 3.37,-21.74 -0.34,-6.85 -3.15,-10.43 -8.4,-14.82 l -4.71,-4.25 c -1.2,-0.9 -3.51,-2.3 -3.08,-4.05 0.47,-1.94 3.33,-1.01 4.49,-0.73 l 16.61,4.14 c 2.52,0.64 7.38,0.83 6.47,4.5 -4.08,16.42 -8.91,32.45 -13.05,49.07 -3,11.98 -5.31,24.54 -8.28,36.51 -0.45,1.74 -1.79,3.05 -3.72,2.56 -2.31,-0.57 -1.55,-3.66 -1.07,-5.59 3.32,-13.34 -0.73,-13.53 -12.71,-16.51 l -78.63,-19.62 c -12.36,-3.07 -16.03,-4.81 -19.35,8.52 -0.49,1.93 -1.45,4.97 -3.59,4.45 -2.11,-0.54 -2.5,-2.27 -2.08,-4.01 0.97,-3.87 2.8,-7.92 3.78,-11.79 l 18.83,-75.53 c 0.39,-1.56 0.28,-1.98 1.67,-1.84 l 21.22,2.22 c 1.63,0 3.27,-0.02 4.82,0.36 1.36,0.36 1.99,1.12 1.65,2.47 -0.59,2.31 -6.12,2.37 -7.62,2.61 -18.65,2.33 -21.69,12.86 -25.82,29.48 -3.81,15.27 -5.74,23.81 12.02,28.23 l 33.63,8.39 c 6.57,1.64 7.05,-0.29 8.98,-8.02 1.45,-5.8 3.94,-15.85 4.08,-23.81 0.1,-4.49 -5.3,-7.49 -10.68,-9.84 -1.09,-0.48 -3.09,-1.6 -2.64,-3.33 0.23,-0.97 0.91,-2.03 4,-1.27 6.14,1.75 11.84,3.57 17.92,5.51 5.5,0.95 11.4,2.01 16.85,3.17 1.55,0.38 1.64,1.64 1.41,2.61 -0.43,1.74 -2.7,1.8 -3.91,1.69 -5.86,-0.44 -13.23,-1.25 -15.03,3.44 -2.83,7.29 -5.14,17.38 -6.6,23.19 -1.97,7.91 -2.4,9.65 6.68,11.91 l 28.01,6.99 v 0" /><path
             id="path102"
             style="fill:#231f20;fill-opacity:1;fill-rule:evenodd;stroke:none"
             d="m 2210.03,1298.56 c 13.83,1.69 15.84,1.55 17.7,-13.47 2.16,-17.59 -6.4,-29.66 -24.58,-31.92 -7.89,-0.96 -15.52,0.7 -21.27,6.63 -6.64,6.82 -8.44,14.82 -9.56,23.9 -0.41,3.38 -2.61,9.92 2.32,10.53 l 35.39,4.33 z m -84.53,5.47 c -12.46,-1.52 -16.28,-2.99 -17.99,10.83 -0.22,1.79 -0.4,4.96 -2.96,4.64 -2.18,-0.25 -2.39,-1.89 -2.17,-3.67 0.93,-7.5 2.64,-14.91 3.55,-22.42 0.94,-7.5 1.02,-14.74 1.94,-22.23 0.23,-1.79 0.8,-3.32 2.99,-3.06 2.56,0.32 1.96,3.66 1.74,5.45 -1.49,13.64 2.17,13.3 14.81,14.85 l 30.44,3.74 c 1.78,0.22 6.5,0.98 8.03,-0.02 1.3,-0.84 1.33,-2.66 1.51,-4.22 1.85,-15.03 0.24,-15.03 -12.72,-23.83 L 2118.53,1240 c -2.79,-1.96 -6.39,-3.61 -5.91,-7.56 l 2.57,-20.96 c 0.2,-1.57 0.64,-3.51 2.61,-3.28 2.77,0.32 2.33,3.91 2.14,5.47 -1.07,8.7 6.09,12.6 12.56,17 l 28.86,19.8 c 4.8,3.38 11.35,7.2 11.57,13.66 4.19,-16.16 16.48,-29.68 34.46,-27.47 20.74,2.53 27.76,22.26 25.46,41.03 -1.38,11.27 -3.53,22.24 -4.93,33.69 -0.8,6.33 -0.82,13.15 -1.59,19.48 -0.29,2.16 -1.24,3.45 -3.42,3.19 -2.36,-0.3 -1.98,-3.46 -1.76,-5.22 1.71,-13.84 -2.18,-13.33 -14.83,-14.87 l -80.82,-9.93 v 0" /><path
             id="path104"
             style="fill:#231f20;fill-opacity:1;fill-rule:evenodd;stroke:none"
             d="m 2205.42,1146.1 c 0.98,-0.41 5.94,-1.89 5.92,-3.5 -0.02,-1.19 -5.24,-2.68 -6.04,-3.06 l -34.08,-12.95 c -0.39,0 -3.61,-1.34 -4.41,-1.32 -2.19,0.04 -1.51,4.61 -1.48,5.79 l 0.39,22.9 c 0.01,0.79 -0.67,7.2 1.33,7.16 0.58,-0.02 1.79,-0.44 2.37,-0.64 l 36,-14.38 z m -53.41,21.25 c 7.13,-3.11 7.94,-1.92 7.79,-9.89 l -0.46,-27.09 c -0.17,-9.54 -0.14,-8.16 -10.38,-12.16 l -15.22,-6.1 c -2.61,-0.95 -7.03,-2.67 -9.81,-2.62 -5.97,0.1 -5.85,7.67 -5.75,12.84 0.03,1.99 0.09,5.78 -2.89,5.83 -1.79,0.02 -2.03,-1.95 -2.04,-3.15 -0.13,-7.37 0.52,-14.95 0.4,-22.11 -0.14,-8.76 -1.1,-17.51 -1.25,-26.27 -0.03,-1 0.15,-2.98 1.95,-3.01 2.98,-0.06 3.05,3.72 3.07,5.71 0.17,9.75 11.78,12.93 19.61,16 l 100.63,38.46 c 1.2,0.38 3.81,1.12 3.84,2.72 0.04,2.19 -2.74,2.84 -4.32,3.46 l -99.08,40.16 c -3.75,1.47 -12.85,5.22 -15.59,7.86 -2.74,2.63 -3.08,6.43 -3.01,10.01 0.03,1.78 0.1,5.56 -2.68,5.62 -3.39,0.06 -2.28,-5.14 -2.32,-7.13 -0.1,-5.58 0.6,-11.17 0.5,-16.74 -0.1,-5.57 -1,-11.14 -1.1,-16.72 -0.02,-1.99 -0.08,-4.77 2.31,-4.82 2.78,-0.05 2.66,3.36 2.68,5.15 0.07,4.57 0.84,13.32 7.4,13.2 3.59,-0.07 7.75,-1.73 10.9,-2.98 l 14.82,-6.23 v 0" /><path
             id="path106"
             style="fill:#231f20;fill-opacity:1;fill-rule:evenodd;stroke:none"
             d="m 2209.07,1011.52 c 13.75,-2.19 15.65,-2.89 13.3,-17.84 -2.78,-17.5 -14.34,-26.758 -32.42,-23.891 -7.87,1.242 -14.74,4.949 -18.62,12.231 -4.53,8.378 -4.04,16.562 -2.6,25.59 0.52,3.35 0.21,10.27 5.13,9.49 l 35.21,-5.58 z m -79.76,28.55 c -12.38,1.97 -16.48,1.61 -14.31,15.37 0.29,1.78 0.99,4.89 -1.57,5.29 -2.15,0.35 -2.8,-1.17 -3.08,-2.94 -1.19,-7.47 -1.59,-15.07 -2.76,-22.54 -1.19,-7.47 -3.09,-14.42 -4.28,-21.89 -0.29,-1.78 -0.13,-3.42 2.02,-3.76 2.57,-0.4 2.89,2.98 3.17,4.74 2.36,13.53 5.76,12.2 18.35,10.2 l 30.29,-4.81 c 1.77,-0.27 6.52,-0.82 7.7,-2.22 1.02,-1.17 0.55,-2.91 0.3,-4.48 -2.37,-14.948 -3.9,-14.51 -18.8,-19.401 l -41.4,-13.199 c -3.2,-1.11 -7.11,-1.692 -7.74,-5.629 l -3.29,-20.852 c -0.26,-1.57 -0.37,-3.558 1.6,-3.867 2.74,-0.434 3.3,3.098 3.55,4.68 1.38,8.66 9.31,10.41 16.77,12.859 l 33.19,11.07 c 5.56,1.938 12.89,3.809 14.88,9.938 -0.43,-16.668 7.66,-33.07 25.55,-35.899 20.66,-3.261 32.83,13.75 35.79,32.43 1.78,11.211 2.73,22.36 4.53,33.75 1.02,6.3 2.85,12.86 3.85,19.15 0.34,2.17 -0.22,3.68 -2.39,4.01 -2.36,0.38 -2.86,-2.77 -3.13,-4.54 -2.2,-13.76 -5.77,-12.19 -18.35,-10.19 l -80.44,12.73 v 0" /><path
             id="path108"
             style="fill:#231f20;fill-opacity:1;fill-rule:nonzero;stroke:none"
             d="m 2093.58,870.148 91.33,9.352 c 2.59,0.25 5.72,0.969 8.37,0.141 3.44,-1.059 0.55,-9.121 0.33,-10.5 -0.28,-1.59 -0.79,-3.942 1.51,-4.629 2.28,-0.692 2.85,1.207 3.38,2.918 1.82,5.902 2.8,11.84 4.54,17.558 2.09,6.844 4.83,13.094 6.93,19.953 0.52,1.707 1.05,4.059 -1.06,4.7 -2.85,0.871 -3.84,-2.371 -4.44,-4.282 -2.66,-8.75 -9.26,-9.218 -16.98,-9.98 l -110.22,-11.09 c -1.3,-0.207 -5.79,0.109 -6.37,-1.789 -0.47,-1.531 3.38,-3.949 4.4,-4.68 l 83.47,-68.191 c 3.53,-2.758 8.42,-7.168 10.34,-11.09 1.21,-2.867 0.9,-5.898 0.09,-8.559 -0.52,-1.718 -1.01,-4.691 1.27,-5.378 1.72,-0.543 2.83,0.386 3.29,1.886 1.63,5.344 2.5,10.91 4.14,16.242 1.63,5.329 4.14,10.809 5.77,16.129 0.57,1.922 0.7,4.379 -1.59,5.082 -2.85,0.86 -4.31,-5.961 -4.84,-7.679 -1.06,-3.43 -3.41,-7.711 -7.78,-6.383 -2.85,0.891 -6.52,3.883 -8.9,5.641 l -66.98,54.628 v 0" /><path
             id="path110"
             style="fill:#231f20;fill-opacity:1;fill-rule:nonzero;stroke:none"
             d="m 2141.49,722.809 c 3.38,-0.321 5.8,-1.278 7.46,2.132 l 10.12,20.75 c 0.96,1.957 3.42,4.75 0.56,6.149 -2.51,1.219 -4.07,-1.11 -4.96,-2.899 -4.71,-9.671 -6.13,-9.859 -14.92,-4.691 l -76.57,44.211 c -8.49,4.82 -12.9,7.629 -7.99,17.648 0.78,1.602 2.08,4.743 -0.06,5.782 -1.8,0.871 -2.78,-0.192 -3.56,-1.801 -2.53,-5.199 -4.42,-10.91 -7.05,-16.289 -2.61,-5.371 -5.94,-10.379 -8.56,-15.762 -0.79,-1.598 -1.92,-3.918 0.22,-4.98 2.51,-1.227 4.16,2.621 5.04,4.429 6.19,12.692 15.24,8.063 25.79,2.012 l 71.21,-41.141 -0.62,-1.25 -107.91,9 c -1.44,0.243 -3.84,0.762 -4.72,-1.019 -0.79,-1.621 0.92,-3.121 1.91,-4.258 l 73.69,-85.133 -0.61,-1.238 -81.08,39.527 c -3.23,1.571 -10.01,4.453 -11.03,8.711 -0.65,2.75 0.28,6.949 1.58,9.641 0.89,1.789 3.08,5.359 0.38,6.672 -1.96,0.968 -3.09,-0.922 -3.8,-2.34 -3.4,-6.992 -6.18,-14.492 -9.66,-21.652 -2.79,-5.731 -6.31,-11.11 -9.1,-16.829 -0.7,-1.441 -1.49,-3.492 0.49,-4.453 2.68,-1.308 4.16,2.621 5.03,4.422 1.23,2.5 2.72,5.09 5.73,5.84 3.56,0.93 10.63,-2.738 13.49,-4.141 l 73.91,-36.05 c 3.22,-1.571 10.55,-4.258 12.01,-7.629 1.18,-2.578 -1.28,-6.239 -2.4,-8.578 -0.88,-1.782 -1.74,-4.461 0.75,-5.68 2.87,-1.402 3.53,2.258 4.5,4.219 l 9.68,19.871 c 0.97,1.968 1.85,3.75 0.03,5.957 l -66.48,78.082 97.5,-7.242 v 0" /><path
             id="path112"
             style="fill:#231f20;fill-opacity:1;fill-rule:nonzero;stroke:none"
             d="m 1983.25,554.102 -8.36,6.769 -24.43,-30.18 -30.16,24.43 -6.77,-8.351 30.18,-24.43 -24.32,-30.031 8.36,-6.758 24.3,30.019 30.03,-24.3 6.76,8.351 -30.02,24.301 24.43,30.18 v 0" /><path
             id="path114"
             style="fill:#231f20;fill-opacity:1;fill-rule:nonzero;stroke:none"
             d="m 544.547,435.832 c 0.961,3.258 2.355,5.449 -0.66,7.719 l -18.449,13.91 c -1.747,1.32 -4.012,4.258 -5.926,1.719 -1.676,-2.231 0.308,-4.219 1.898,-5.418 8.586,-6.473 8.508,-7.903 1.754,-15.532 l -58.012,-66.742 c -6.347,-7.429 -9.941,-11.207 -18.847,-4.488 -1.434,1.082 -4.254,2.961 -5.692,1.051 -1.195,-1.602 -0.324,-2.75 1.106,-3.821 4.613,-3.48 9.863,-6.449 14.633,-10.031 4.769,-3.597 9.062,-7.828 13.828,-11.429 1.437,-1.071 3.504,-2.629 4.941,-0.719 1.676,2.211 -1.785,4.578 -3.375,5.789 -11.285,8.492 -5.012,16.48 2.926,25.711 l 53.984,62.031 1.114,-0.844 -29.426,-104.226 c -0.524,-1.352 -1.481,-3.621 0.105,-4.821 1.43,-1.07 3.227,0.309 4.547,1.071 l 97.609,56.078 1.11,-0.828 -54.277,-72.032 c -2.165,-2.859 -6.274,-9 -10.653,-9.171 -2.832,-0.118 -6.769,1.613 -9.156,3.41 -1.586,1.191 -4.688,4.019 -6.484,1.64 -1.325,-1.757 0.312,-3.238 1.582,-4.187 6.207,-4.684 13.043,-8.832 19.398,-13.633 5.09,-3.828 9.703,-8.301 14.793,-12.117 1.27,-0.973 3.137,-2.121 4.457,-0.391 1.797,2.399 -1.781,4.59 -3.375,5.789 -2.223,1.68 -4.488,3.641 -4.641,6.731 -0.23,3.679 4.723,9.918 6.637,12.461 l 49.492,65.668 c 2.157,2.879 6.192,9.55 9.782,10.34 2.746,0.66 5.882,-2.45 7.953,-4 1.589,-1.2 4.054,-2.559 5.734,-0.329 1.918,2.528 -1.543,3.891 -3.297,5.219 l -17.644,13.301 c -1.754,1.309 -3.34,2.508 -5.856,1.16 l -89.316,-50.359 25.703,94.32 v 0" /><path
             id="path116"
             style="fill:#231f20;fill-opacity:1;fill-rule:evenodd;stroke:none"
             d="m 759.02,241.25 c -6.543,-13.43 -15.079,-24.102 -28.727,-30.75 -13.738,-6.352 -29.137,-7.059 -42.914,-0.328 -13.606,6.629 -23.43,18.297 -26.953,32.859 -3.707,14.649 -0.293,29.84 6.254,43.25 6.285,12.879 15.871,24.821 29.082,31.008 13.91,6.731 29.676,6.34 43.636,-0.457 13.418,-6.551 22.266,-18.402 25.875,-32.781 3.629,-15.281 0.469,-29.02 -6.253,-42.801 z m -108.45,52.891 c -15.886,-32.582 1.793,-73.102 34.004,-88.801 34.004,-16.59 73.883,-6.578 90.735,27.961 16.839,34.531 0.086,71.961 -33.918,88.531 -32.207,15.719 -74.93,4.879 -90.821,-27.691 v 0" /><path
             id="path118"
             style="fill:#231f20;fill-opacity:1;fill-rule:nonzero;stroke:none"
             d="m 956.422,226.02 c 1.129,6.5 3.988,10.269 -1.887,14.511 -8.25,6.141 -19.707,11.059 -29.515,13.688 -36.93,9.902 -80.2,-6.957 -90.504,-45.43 -4.946,-18.449 -0.887,-35.629 10.203,-51.18 10.519,-14.558 25.597,-22.918 42.902,-27.558 14.039,-3.762 29.82,-4.91 43.805,-0.41 5.195,1.699 4.801,4.089 6.136,9.078 l 5.93,22.121 c 0.778,2.879 1.883,8.558 4.949,10.012 1.704,0.98 4.59,0.207 6.371,-0.063 l 3.762,-0.59 c 1.735,-0.48 3.707,-0.789 4.321,1.52 0.519,1.922 -1.11,2.769 -2.653,3.179 -6.726,1.801 -13.472,2.782 -20.012,4.543 -6.925,1.86 -13.644,4.469 -20.562,6.34 -1.734,0.469 -4.43,1.18 -5.098,-1.332 -0.668,-2.488 2.075,-3.019 4,-3.527 11.153,-2.992 12.618,-5.242 9.727,-16.024 l -4.277,-15.957 c -1.239,-4.609 -3.067,-12.992 -7.981,-15.171 -6.57,-2.969 -16.828,-1.258 -23.367,0.48 -16.543,4.441 -29.395,12.629 -36.957,28.262 -6.82,13.789 -7.254,28.328 -3.336,42.949 3.711,13.84 12.898,28.891 24.871,37.449 13.059,9.469 28.004,10.629 43.199,6.559 34.039,-9.117 23.735,-32.957 30.278,-34.719 2.117,-0.551 3.398,1.172 3.914,3.09 l 1.781,8.18 v 0" /><path
             id="path120"
             style="fill:#231f20;fill-opacity:1;fill-rule:nonzero;stroke:none"
             d="m 1081.65,122.68 -28.13,87.41 c -0.79,2.48 -2.13,5.39 -1.89,8.16 0.31,3.582 8.81,2.43 10.22,2.52 1.6,0.05 4,0.039 4.2,2.421 0.21,2.379 -1.77,2.559 -3.55,2.707 -6.16,0.543 -12.17,0.262 -18.12,0.793 -7.14,0.61 -13.82,2 -20.96,2.629 -1.79,0.149 -4.19,0.16 -4.38,-2.031 -0.26,-2.957 3.12,-3.258 5.1,-3.437 9.13,-0.801 10.97,-7.141 13.32,-14.551 L 1071.2,103.82 c 0.49,-1.238 1.1,-5.6989 3.09,-5.8708 1.58,-0.1406 3.15,4.1208 3.65,5.2808 l 49.36,95.821 c 1.95,4.019 5.25,9.73 8.69,12.429 2.55,1.77 5.58,2.102 8.36,1.86 1.78,-0.149 4.79,-0.02 5,2.371 0.15,1.781 -0.97,2.68 -2.55,2.809 -5.56,0.492 -11.18,0.191 -16.74,0.671 -5.55,0.481 -11.43,1.797 -16.99,2.289 -1.98,0.168 -4.41,-0.21 -4.62,-2.609 -0.26,-2.949 6.74,-2.973 8.52,-3.141 3.57,-0.3 8.24,-1.71 7.84,-6.281 -0.26,-2.969 -2.42,-7.187 -3.66,-9.859 l -39.5,-76.91 v 0" /><path
             id="path122"
             style="fill:#231f20;fill-opacity:1;fill-rule:nonzero;stroke:none"
             d="m 1303.33,129.301 -78.19,84.918 c -2.66,2.953 -4.49,5.601 -8.75,6.23 l -24.59,-2.16 c -2.18,-0.187 -4.74,-0.617 -4.48,-3.59 0.18,-2.179 3.36,-1.898 5.16,-1.75 13.88,1.223 13.22,-2.84 14.32,-15.328 l 7.11,-81.133 c 1.08,-12.297 2.42,-16.379 -11.46,-17.5974 -1.79,-0.1406 -5.22,0.1485 -4.99,-2.4297 0.21,-2.1914 1.85,-2.8398 3.84,-2.6523 5.75,0.4922 11.62,1.8125 17.19,2.293 5.95,0.5195 11.57,0.2304 17.52,0.7304 1.98,0.1875 3.31,1.0899 3.11,3.277 -0.22,2.571 -3.35,1.692 -5.13,1.551 -13.88,-1.211 -13.27,3.031 -14.33,15.328 l -7.85,89.66 92.79,-101.019 c 1.13,-1.5 3.19,-4.52 5.37,-4.32 1.79,0.152 1.14,2.902 1.07,3.89 l -8.83,100.762 c -1.07,12.301 -2.23,16.398 11.45,17.598 1.99,0.171 5.17,0.441 4.97,2.632 -0.18,2.18 -1.87,3.039 -3.64,2.868 -5.77,-0.5 -11.24,-1.778 -17.19,-2.289 -5.95,-0.528 -11.57,-0.219 -17.53,-0.731 -1.98,-0.187 -3.48,-1.32 -3.3,-3.488 0.2,-2.192 3.38,-1.922 5.15,-1.762 13.88,1.223 13.45,-2.809 14.55,-15.297 l 6.66,-76.191 v 0" /><path
             id="path124"
             style="fill:#231f20;fill-opacity:1;fill-rule:nonzero;stroke:none"
             d="m 1421.6,237.332 c -2.44,9.84 -2.36,9.457 6.34,11.629 l 11.2,2.789 c 5.99,1.512 11.39,2.859 16.91,-1.121 3.82,-2.938 6.51,-8.02 8.88,-11.75 0.67,-1.047 1.45,-2.5 2.79,-2.16 2.13,0.519 1.89,2.32 1.5,3.851 l -4.71,23.871 c -0.34,1.36 -0.77,7.2 -3.47,6.508 -1.93,-0.469 -1.89,-2.301 -2.08,-4 -0.58,-5.89 -5.66,-6.129 -10.68,-7.367 l -70.14,-17.492 c -3.09,-0.77 -7,-2.371 -10.04,-0.86 -1.84,0.77 -1.93,1.981 -2.56,3.668 -0.27,1.161 -1.1,1.973 -2.27,1.692 -1.73,-0.442 -1.77,-1.891 -1.82,-3.328 l -1.28,-26.992 c -0.15,-1.071 -0.34,-3.59 0,-4.93 0.33,-1.348 1.16,-2.18 2.5,-1.84 1.94,0.492 2.66,4.148 3.1,5.699 5.42,17.762 12.14,21.281 29.72,25.672 5.98,1.488 8.16,3.469 9.89,-3.48 l 22.31,-89.45 c 3.02,-12.171 4.95,-15.8 -8.57,-19.171 -1.73,-0.418 -4.87,-1.008 -4.25,-3.52 0.53,-2.121 2.18,-2.121 3.9,-1.691 7.36,1.832 14.49,4.421 21.85,6.261 7.34,1.828 14.49,2.789 21.83,4.621 1.73,0.43 3.18,1.2 2.66,3.34 -0.64,2.5 -3.86,1.5 -5.61,1.059 -13.34,-3.328 -13.46,0.531 -16.55,12.91 l -21.35,85.582 v 0" /><path
             id="path126"
             style="fill:#231f20;fill-opacity:1;fill-rule:nonzero;stroke:none"
             d="m 1555.11,187.129 c 4.48,-11.699 6.84,-15.07 -6.15,-20.07 -1.68,-0.637 -4.74,-1.59 -3.81,-4.02 0.79,-2.051 2.43,-1.828 4.09,-1.187 7.06,2.707 13.85,6.148 20.9,8.867 7.07,2.711 14.05,4.531 21.12,7.261 1.67,0.629 3.01,1.571 2.23,3.622 -0.94,2.41 -4.03,1.007 -5.69,0.367 -12.9,-4.739 -13.44,-1.098 -18.01,10.793 l -29.24,76.218 c -4.51,11.7 -6.8,14.879 6.22,19.872 1.67,0.66 4.83,1.859 3.9,4.269 -0.78,2.051 -2.49,2.039 -4.16,1.399 -7.07,-2.719 -13.84,-6.168 -20.9,-8.872 -7.07,-2.707 -14.04,-4.558 -21.1,-7.25 -1.86,-0.718 -2.96,-1.769 -2.16,-3.816 0.91,-2.422 3.9,-1.281 5.56,-0.641 13.01,4.989 13.43,1.11 17.93,-10.589 l 29.27,-76.223 v 0" /><path
             id="path128"
             style="fill:#231f20;fill-opacity:1;fill-rule:nonzero;stroke:none"
             d="m 1733.97,278.602 -105.96,45.757 c -3.62,1.621 -6.36,3.289 -10.51,2.141 l -21.6,-11.969 c -1.91,-1.07 -4.07,-2.492 -2.62,-5.101 1.07,-1.918 3.85,-0.371 5.41,0.492 12.18,6.758 13.25,2.789 19.33,-8.172 l 39.48,-71.25 c 5.98,-10.789 8.89,-13.961 -3.31,-20.711 -1.57,-0.867 -4.81,-2 -3.55,-4.25 1.06,-1.918 2.83,-1.84 4.58,-0.879 5.04,2.801 9.89,6.399 14.75,9.102 5.24,2.898 10.5,4.886 15.71,7.789 1.75,0.98 2.6,2.34 1.52,4.269 -1.25,2.239 -3.76,0.192 -5.32,-0.691 -12.19,-6.75 -13.34,-2.598 -19.33,8.203 l -43.63,78.699 125.85,-54.539 c 1.64,-0.91 4.76,-2.82 6.66,-1.762 1.57,0.86 -0.13,3.11 -0.61,3.969 l -49.04,88.473 c -5.97,10.789 -8.7,14.066 3.31,20.719 1.74,0.968 4.53,2.507 3.46,4.441 -1.05,1.906 -2.93,2.02 -4.5,1.137 -5.06,-2.789 -9.53,-6.199 -14.75,-9.09 -5.22,-2.891 -10.5,-4.91 -15.73,-7.797 -1.73,-0.973 -2.65,-2.613 -1.58,-4.523 1.06,-1.918 3.84,-0.379 5.41,0.492 12.2,6.769 13.43,2.879 19.51,-8.082 l 37.06,-66.867 v 0" /><path
             id="path130"
             style="fill:#231f20;fill-opacity:1;fill-rule:evenodd;stroke:none"
             d="m 1800.22,405.441 c -0.32,1.008 -2.37,5.758 -1.13,6.758 0.93,0.77 5.44,-2.258 6.23,-2.617 l 31.83,-17.812 c 0.26,-0.29 3.34,-1.899 3.84,-2.508 1.38,-1.703 -2.55,-4.121 -3.49,-4.871 l -17.79,-14.422 c -0.62,-0.5 -5.07,-5.117 -6.31,-3.578 -0.38,0.461 -0.83,1.64 -1.05,2.218 l -12.13,36.832 z m 18.04,-54.562 c -2.19,7.453 -3.62,7.312 2.57,12.32 l 21.06,17.039 c 7.42,6.024 6.33,5.141 15.98,-0.117 l 14.47,-7.75 c 2.41,-1.391 6.57,-3.652 8.31,-5.832 3.75,-4.648 -2.13,-9.398 -6.15,-12.66 -1.54,-1.25 -4.48,-3.629 -2.61,-5.957 1.14,-1.391 2.82,-0.301 3.74,0.457 5.72,4.641 11.11,10.031 16.68,14.531 6.81,5.512 14.11,10.422 20.93,15.93 0.77,0.609 2.18,2.039 1.05,3.41 -1.87,2.332 -4.81,-0.059 -6.37,-1.309 -7.57,-6.14 -17.46,0.707 -24.83,4.739 l -94.16,52.351 c -1.07,0.699 -3.31,2.199 -4.55,1.211 -1.7,-1.39 -0.42,-3.922 0.12,-5.543 l 32.93,-101.711 c 1.29,-3.816 4.26,-13.179 4.01,-16.976 -0.26,-3.801 -2.96,-6.492 -5.73,-8.742 -1.4,-1.129 -4.34,-3.508 -2.57,-5.68 2.12,-2.629 5.38,1.558 6.93,2.808 4.34,3.5 8.17,7.633 12.5,11.153 4.33,3.488 9.16,6.39 13.5,9.898 1.55,1.25 3.72,3.012 2.22,4.86 -1.76,2.171 -4.27,-0.118 -5.65,-1.239 -3.56,-2.879 -10.76,-7.941 -14.89,-2.832 -2.26,2.782 -3.64,7.043 -4.73,10.262 l -4.76,15.379 v 0" /><path
             id="path132"
             style="fill:#231f20;fill-opacity:1;fill-rule:nonzero;stroke:none"
             d="m 1215.17,889.648 -4.55,3.973 h -88.74 l -3.98,-3.973 1.7,-108.097 c 10.24,-5.11 18.77,-2.84 31.28,-3.969 18.78,5.117 40.96,1.699 61.44,2.848 l 2.85,3.961 z m 22.04,-123.316 -3.94,3.93 c -41.68,1.687 -85.6,1.687 -126.72,0 -10.7,-10.703 6.2,-20.274 10.7,-29.852 39.99,-2.25 72.1,-2.25 112.08,0 l 7.88,25.922 z m -128.02,127.789 -9.77,2.289 c 0,0 -3.55,-81.199 2.14,-113.531 0.33,5.172 7.47,-3.168 7.8,2.141 1.8,29.23 -0.64,79.531 -0.17,109.101 z m 113.96,28.961 h -114.32 l -2.89,-4.062 c 1.47,-8.2 4.87,-9.54 9.51,-11.86 l 104.22,1.11 4.64,4.949 c -0.58,3.492 1.16,7.551 -1.16,9.863 z m -47.89,82.028 c -10.14,2.82 -1.7,15.21 -7.88,20.29 -14.08,-0.57 -1.13,-16.91 -11.27,-21.41 -3.94,-1.12 -12.39,-4.51 -14.65,2.81 0.58,3.38 6.76,6.2 6.76,9.57 -9.01,-3.37 -16.89,-11.26 -23.08,-18.011 l 9.57,-20.277 c 17.46,-7.32 34.36,2.816 51.25,4.508 5.06,3.941 14.07,12.949 10.7,21.4 l -21.4,1.12 z m -14.64,-65.891 c -2.82,6.761 -11.83,15.211 -20.28,16.332 -5.07,-7.891 2.82,-13.52 6.76,-19.153 3.38,-5.628 10.14,-2.238 13.52,2.821 z m 13.51,17.75 c 0.32,8.64 -10.47,7.422 -19.14,7.601 l 1.12,-3.949 c 5.07,0.559 13.51,-10.41 18.02,-3.652 z m 567.15,-284.129 -33.79,-2.961 c -16.34,4.141 -38.3,4.141 -55.2,0 l -977.157,-5.91 -13.512,-1.18 c -14.082,-2.367 -27.598,4.141 -39.426,0 H 487.027 l -3.945,-2.969 c -5.07,-2.359 -0.562,-5.91 0,-8.269 58.012,-9.461 117.148,5.32 174.594,-1.781 l 1193.304,3 4.07,5.89 c 5.63,4.129 1.13,12.399 -3.96,14.18 h -109.81 z m -7.1,21.051 C 1721.72,692.129 511.836,686.16 511.836,686.16 l -3.965,-2.969 c 0.57,-2.953 -1.129,-7.691 1.699,-10.05 l 1074.32,4.738 c 78.1,3.543 169.92,-4.508 245.2,3.75 -0.56,2.961 -0.68,7.801 -3.5,10.16 -25.47,4.141 -65.94,6.242 -91.41,2.102 z m 57.44,15.769 c -24.34,8.281 -54.34,2.949 -81.52,4.731 l -702.43,-4.731 c -152.822,0.602 -308.881,-1.379 -465.104,-0.801 -1.691,-2.359 -3.558,-9.847 -0.73,-11.609 l 1164.314,4.121 c 24.32,5.328 52.63,1.77 78.66,2.961 l 6.81,5.328 z m -36.81,24.988 c -164.7,1.184 -302.88,-5.277 -467.59,-3.507 l -39.66,-1.899 -670.064,-1.691 c -3.394,-0.59 -5.098,-4.129 -4.527,-7.102 3.394,-1.758 5.66,-4.129 9.625,-2.937 l 623.746,2.937 c 22.65,1.77 49.25,1.77 70.75,0 l 442.64,2.371 c 11.32,6.489 27.74,0 39.05,5.918 1.69,3.543 -2.27,4.141 -3.97,5.91 z M 721.344,744.25 c -30.145,5.121 -63.707,1.699 -95.559,2.84 -5.691,-2.84 -2.285,-10.238 2.844,-10.801 h 88.734 c 1.703,2.27 5.121,3.981 3.981,7.961 z m -16.496,24.449 h -65.414 l -3.981,-6.82 c 18.777,-10.238 46.641,-2.84 69.395,-3.981 l 3.984,2.852 c 0.566,3.398 -0.57,7.391 -3.984,7.949 z m 170.632,-3.867 c -18.96,10.34 -44.816,4.027 -67.218,5.75 l -5.742,-4.023 c -1.153,-4.02 1.722,-5.739 2.871,-8.61 h 63.199 l 6.89,6.883 z m 8.95,-18.953 c -26.426,4.59 -58.356,1.711 -85.934,2.293 l -5.746,-4.024 c -1.148,-4.027 1.727,-5.738 4.023,-8.039 h 77.891 c 7.676,0.86 12.07,1.723 9.766,9.77 z m 211.8,4.633 h -90.72 c -2.87,-2.871 -4.02,-9.242 0.58,-11.551 h 88.9 l 4.02,2.309 c 3.46,2.289 -2.21,6.941 -2.78,9.242 z m -6.81,17.867 c -20.11,5.16 -46.56,1.031 -68.39,2.18 -4.6,-2.86 -4.6,-6.879 -1.15,-9.75 l 64.49,-0.028 c 2.87,0.559 5.63,4.149 5.05,7.598 z m 229.26,3.172 h -55.75 l -5.69,-7.961 c 19.92,-4.551 43.81,-3.41 64.28,-1.711 4.56,3.422 1.71,8.531 -2.84,9.672 z m 19.28,-30.903 -3.34,10.942 h -84.86 c -2.85,-1.129 -7.87,-8.481 -5.03,-11.32 28.45,-2.27 64.78,-1.899 93.23,0.378 z m 215.24,5.184 -4.6,7.879 -101.93,-1.93 c -2.84,-4.609 -2.84,-10 1.71,-13.062 l 103.5,0.531 1.32,6.582 z m -18.93,21.738 c -17.07,14.211 -42.66,1.129 -64.27,2.84 -2.86,-3.41 0,-8.531 2.83,-9.66 l 60.31,2.84 1.13,3.98 z m 164.37,6.84 h -59.15 l -5.14,-7.969 c 19.93,-7.402 46.08,-3.992 68.27,-2.851 3.41,3.98 0,9.109 -3.98,10.82 z m -39.81,-21.629 c 0,0 -29.03,3.59 -39.83,2.449 -1.14,-5.121 0.58,-12 2.87,-14.269 l 98.27,1.711 c 2.27,0.566 -3.41,11.43 -4,11.43 -15.4,2.269 -37.98,-1.321 -57.31,-1.321 z M 633.395,1051.52 634.551,779.172 c 19.746,-5.082 44.011,-2.262 63.765,-2.832 l 9.594,7.91 -1.137,267.28 14.129,-0.01 -0.476,-290.411 21.445,-24.269 33.856,-1.121 c 9.031,6.769 3.953,19.75 16.367,25.39 l 0.527,290.411 h 11.891 l 0.465,-271.219 c 20.312,-5.082 44.585,-1.692 66.589,-2.821 l 5.641,5.641 v 268.409 l 13.645,-0.01 V 761.109 c 15.238,-42.32 65.359,-15.871 97.531,-23.199 3.379,9.602 5.355,20.731 17.767,23 0.47,39.238 -0.14,160.731 -1.02,290.57 l 11.44,0.04 1.16,-271.219 c 20.88,-3.961 47.96,-5.082 67.71,1.129 v 270.1 l 14.13,-0.01 -0.03,-120.379 c 7.83,-3.071 22.13,0.968 32.28,2.089 -5.64,22.02 -9.59,45.168 -17.49,66.59 10.16,9.03 20.88,24.27 33.86,29.92 -6.39,4.78 -8.54,13.24 -8.25,21.77 l 16.3,0.01 c -0.03,-0.5 -0.07,-0.93 -0.13,-1.35 3.94,-6.18 7.32,-14.64 15.2,-16.32 5.65,3.37 7.89,11.25 10.7,17.45 -0.03,0.08 -0.07,0.16 -0.1,0.25 l 20.12,-0.03 c -3.59,-7.68 -3.28,-16.9 -10.39,-23.47 56.99,-18.06 0,-62.089 6.77,-93.12 11.29,-3.961 24.5,2.05 34.66,-5.848 0.56,-9.031 3.39,-30.363 -7.29,-34.301 l 1.67,-110.019 5.94,-4.461 c 3.4,0.558 7.91,-1.692 9.6,2.82 v 268.409 l 11.76,-0.01 V 848.012 c 1.68,-22.563 -4.52,-48.524 5.64,-67.711 20.87,1.129 44.58,-3.391 63.78,3.949 v 267.27 h 14.75 v -288.7 l 23.14,-24.281 h 63.78 c 6.2,1.691 7.33,8.461 6.77,14.672 1.69,11.859 14.67,2.82 20.31,9.609 v 288.7 h 10.86 l 2.68,-264.45 2.83,-8.07 h 59.26 l 3.95,8.07 -0.91,264.45 h 16.18 l 1.09,-246.95 1.69,-38.941 21.44,-24.84 31.05,-1.117 c 3.96,2.816 9.02,4.508 6.77,10.719 -1.7,9.031 8.46,10.718 13.53,13.539 l -2.11,287.59 h 11.31 l 2.2,-264.45 3.94,-3.949 c 22,1.129 46.85,-3.391 66.59,3.949 l -0.94,264.45 h 13.56 l 1.09,-244.75 c 1.4,-21.11 -4.51,-48.731 11.78,-58.95 7.88,-10.672 22.47,-2.808 32.57,-6.75 13.28,-32.351 40.08,-9.16 51.1,-36.48 23.58,0 17.24,-24.551 47.38,-26 6.74,-11.231 7.79,-24.5 2.17,-34.059 L 475.234,640 c -3.925,9.559 -5.054,25.832 1.129,33.699 8.981,-0.57 17.969,-0.57 24.141,5.063 1.687,4.488 -3.363,12.91 4.492,13.457 10.668,0 23.027,-1.117 28.074,9.543 0,6.187 1.692,12.929 9.547,12.367 7.301,0.562 16.848,-2.809 21.336,5.062 3.371,5.61 -1.683,14.59 6.738,17.391 13.481,3.379 37.625,-7.852 40.426,9.547 -3.926,12.359 11.797,8.98 13.485,19.101 0,0 -0.497,135.75 -1.196,286.26 l 9.989,0.03 v 0" /><path
             id="path134"
             style="fill:#231f20;fill-opacity:1;fill-rule:nonzero;stroke:none"
             d="m 1263.12,1975.53 c -12.95,27.02 -42.25,36.04 -66.46,47.3 -50.69,11.26 -95.74,-7.88 -125.59,-42.8 v -5.63 l 192.05,1.13 z m 5.56,-10.63 -201.15,-0.52 c -2.81,-1.69 -6.68,-10.91 -1.05,-13.17 h 203.76 l 2.46,4.04 c 1.12,3.94 -2.9,7.39 -4.02,9.65 z m 134.68,-52.46 c -34.36,8.45 -64.78,27.04 -103.63,25.35 -114.91,-1.12 -238.8,11.83 -341.863,-21.4 -56.32,-20.84 -114.332,-55.76 -147.558,-110.96 h 640.351 l 77.17,2.82 v 3.95 c -34.36,44.48 -79.42,75.47 -124.47,100.24 z m 328.9,-297.37 -1130.342,-2.81 c -10.703,-2.26 3.379,-6.76 0,-12.4 -2.813,-21.4 -6.195,-45.05 2.816,-64.76 l 1125.846,2.81 5.63,5.07 c -1.68,24.22 3.37,50.7 -3.95,72.09 z m -99.11,86.18 -28.16,2.81 c -5.63,-7.88 -10.15,4.51 -16.34,-1.12 l -865.08,-4.51 c -41.675,1.69 -81.097,-3.38 -109.258,-34.92 l 2.817,-3.94 977.151,2.82 c 43.37,5.63 91.8,-0.57 135.17,5.06 -20.28,30.98 -60.83,42.25 -96.3,33.8 z m 24.77,13.51 c -30.96,51.25 -103.07,25.91 -157.12,32.67 l -762.027,-2.82 c -14.07,-3.38 -48.425,-28.16 -42.234,-34.91 l 952.931,2.25 8.45,2.81 z m -154.32,81.1 c -8.45,-1.13 -15.77,-2.25 -23.08,-1.13 l -673.036,-2.81 c -23.644,-4.51 -48.425,-11.83 -61.953,-33.8 l 2.821,-2.8 843.108,1.68 7.9,2.25 c -17.47,36.05 -59.71,34.36 -95.76,36.61 z m 257.96,-143.04 h -298.51 l -885.347,-3.96 -3.941,-2.82 c -1.125,-3.37 6.433,-10.75 9.246,-11.31 l 1170.912,3.42 c 0,0 11.38,2.37 11.38,7.73 0,3.08 -2.62,5.25 -3.74,6.94 z m -32.11,-124.48 h -235.41 l -886.489,-3.94 -5.633,-5.63 c 1.129,-4.5 -1.688,-10.71 4.512,-13.51 l 982.22,1.69 21.96,2.24 c 25.35,-3.93 56.32,-3.93 82.23,0 13.52,6.2 41.69,-7.89 43.37,12.39 -1.13,2.82 -3.95,6.2 -6.76,6.76 z m -997.895,-48.22 c -2.879,9.06 -9.196,10.87 -16.09,15.7 -30.449,-1.21 -61.477,2.41 -89.625,-3.02 -9.195,-1.81 -20.102,-9.66 -18.391,-21.72 2.309,-6.65 9.196,-13.9 16.668,-12.69 4.024,0.61 8.039,2.41 8.613,7.25 -3.445,6.04 -8.613,0 -12.636,0 -1.149,2.41 -5.742,3.63 -4.02,7.24 2.293,6.04 8.614,9.06 13.785,11.47 27.004,-1.21 58.602,-4.82 83.879,3.02 4.598,-2.41 12.067,-6.64 10.914,-13.28 -4.593,-8.45 -10.336,4.23 -17.804,0 -2.871,-2.41 -4.598,-6.04 -4.028,-10.25 3.453,-6.66 11.496,-7.25 17.817,-8.46 10.918,2.42 12.062,14.49 10.918,24.74 z m 166.574,8.45 c -28.149,13.28 -64.914,4.84 -96.52,7.25 l -18.382,-14.49 c -3.446,-7.84 0,-16.29 5.75,-21.73 6.89,-1.21 13.781,-4.22 19.531,3.03 2.293,16.9 -11.492,-0.62 -15.516,10.25 -2.293,4.83 3.449,6.65 5.746,9.66 28.153,1.81 62.047,-3.62 89.625,4.83 2.875,-3.63 11.492,-4.23 8.043,-12.08 -5.168,-12.66 -12.066,6.65 -18.961,0 -1.718,-4.82 -3.441,-13.28 1.149,-16.9 8.617,-5.43 17.234,2.41 21.836,8.45 6.324,6.65 1.148,15.7 -2.301,21.73 z m 454.111,-8.48 c -4.02,9.65 -13.78,15.09 -21.82,18.71 -33.91,-4.23 -75.27,10.86 -101.12,-13.28 -2.87,-7.86 -11.49,-17.52 0,-24.75 6.31,-2.42 14.94,-7.25 20.69,-1.21 1.72,4.23 3.44,11.47 -1.15,14.49 -5.74,3.01 -6.9,-5.44 -10.93,-6.05 -2.3,3.03 -5.75,4.84 -4.02,9.06 4.61,5.44 9.21,9.67 16.1,10.27 16.65,-8.45 37.91,-3.02 56.87,-4.83 10.91,1.81 26.44,15.69 35.61,0 -0.56,-24.74 -16.65,13.28 -21.82,-9.66 3.45,-6.64 10.34,-11.47 17.81,-12.07 9.76,0.6 10.35,12.07 13.78,19.32 z m -244.61,11.5 c -34.46,10.87 -70.09,4.23 -105.13,0 -8.043,-5.43 -12.066,-14.48 -12.066,-24.75 2.296,-10.25 12.646,-13.28 21.826,-13.28 3.45,3.03 5.18,6.65 5.75,10.28 -1.14,9.04 -11.49,0.59 -13.79,7.24 -4.591,3.01 1.15,5.42 2.3,7.24 28.72,8.45 65.5,1.8 94.23,6.03 l 5.16,-6.03 c 0.58,-23.54 -13.79,9.65 -18.96,-8.45 -1.72,-4.23 1.73,-6.03 4.03,-9.07 5.74,-4.82 16.65,-2.41 20.68,3.04 -1.15,10.86 9.19,20.51 -4.03,27.75 z m 450.2,-13.37 c -9.77,35.62 -52.27,16.91 -77.57,21.74 -17.8,-4.83 -44.81,6.64 -52.27,-18.71 -2.3,-8.45 2.87,-13.89 8.05,-18.72 5.16,-2.41 13.21,-2.41 16.66,3.01 4.59,15.09 -11.5,5.44 -14.95,12.68 1.73,5.44 6.91,9.06 12.07,9.06 29.87,-7.85 59.18,1.81 88.48,2.42 l 9.76,-8.45 c 0,-19.32 -14.36,2.41 -19.53,-8.45 0.58,-8.46 9.19,-7.86 13.78,-12.07 9.78,0 12.08,10.25 15.52,17.49 z m 160.19,20.54 -83.88,1.2 c -9.18,-1.81 -18.95,-6.04 -23.55,-15.69 -1.73,-5.44 -3.46,-15.1 2.88,-18.73 5.74,-2.4 14.36,-9.05 18.94,0 4.61,14.49 -8.61,4.24 -13.78,11.48 -4.02,3.61 2.87,5.43 4.6,8.46 28.16,3.61 60.32,-1.21 87.9,4.22 l 5.74,-5.43 c 2.87,-3.64 1.15,-9.06 -2.87,-11.47 -5.17,-1.21 -8.6,11.47 -13.79,2.41 -3.45,-2.41 1.15,-5.43 1.15,-8.45 6.9,-6.03 18.38,-5.44 23.57,3.02 8.61,9.05 2.87,22.33 -6.91,28.98 z m -578.08,-447.24 c 0.11,3.54 0.65,7.08 1.48,10.38 7.33,11.85 19.18,24.28 33.85,23.14 12.99,-6.77 20.89,-20.32 27.1,-32.74 -0.12,-0.23 -0.25,-0.47 -0.34,-0.71 l -20.12,-0.07 c -3.8,9.09 -2.27,24.56 -16.23,23.99 -12.35,-1.61 -8.82,-15 -9.44,-24.05 l -16.3,0.06 z m -516.534,0 c -0.793,170.41 -1.844,359.78 -2.738,392.57 -11.797,3.38 -18.527,14.6 -23.023,24.15 12.914,17.98 -23.02,23.59 -6.743,39.31 1.692,10.67 -21.332,23.02 -1.117,28.08 l 1.117,70.19 c -8.976,12.35 -31.437,23.58 -28.074,43.23 6.18,15.16 23.027,4.5 33.695,9.55 19.086,28.07 49.415,37.05 78.047,45.48 12.914,19.09 33.692,40.44 55.035,49.97 12.911,20.22 34.809,35.38 56.707,42.11 49.411,66.27 120.723,120.73 199.336,135.9 l 63.452,12.35 c 5.62,6.74 0.56,17.97 3.93,25.27 31.45,50.53 91.53,71.87 152.73,59.51 30.88,-7.85 57.27,-29.76 79.18,-56.71 0,-9.55 -1.14,-20.21 9.54,-24.15 97.71,-5.05 184.18,-47.72 247.62,-126.9 6.18,-2.81 10.11,-10.66 17.96,-9.55 34.84,-13.47 48.87,-52.2 84.8,-62.88 21.33,-14.04 34.25,-40.99 60.64,-43.23 29.76,-3.94 32,-51.66 65.7,-43.24 4.5,-4.49 3.37,-13.48 1.69,-19.09 -6.18,-10.67 -20.22,-10.11 -25.84,-22.47 v -78.61 c 17.98,-11.79 -12.91,-24.14 1.69,-40.42 -6.17,-10.11 -13.48,-19.08 -12.36,-32.01 l -20.2,-25.84 1.71,-392.57 h -13.56 l -0.76,206.78 c 3.97,7.33 -3.38,132.61 -2.82,192.43 -7.89,6.21 -13.54,16.36 -18.61,25.4 h -24.26 c -6.21,-14.11 -26.53,-14.11 -28.78,-31.04 l 1.69,-93.11 c 0,-12.99 -1.69,-29.37 1.12,-43.45 -4.51,-15.81 -2.25,-26.52 -1.12,-43.46 l 1.75,-213.55 h -11.31 l -2.96,399.21 c -12.98,6.21 -20.88,19.18 -19.19,33.87 -10.16,5.63 -17.49,1.13 -28.22,0 0,-18.07 -15.23,-24.84 -24.82,-36.68 l 1.73,-396.39 -16.18,-0.01 -1.37,399.21 -16.34,24.27 h -32.74 c -9.04,-4.52 -14.11,-12.41 -21.45,-19.18 l 4.09,-404.3 h -10.86 v 18.84 l -2.82,378.68 -2.82,4.51 c -11.85,-3.94 -19.74,5.09 -25.39,13.54 -2.82,5.09 0.56,12.43 -5.64,15.81 h -48.53 c -2.27,-15.81 -15.25,-24.83 -28.8,-32.17 v -399.2 l -14.75,-0.01 v 399.21 l -9.61,9.59 c -0.55,16.93 -18.06,14.68 -31.03,14.68 -16.37,2.25 -16.37,-16.36 -28.78,-23.14 v -400.33 l -11.76,-0.01 v 388.49 c 0.58,5.64 -3.95,9.6 -9.6,9.03 -11.28,5.09 -23.13,16.93 -20.31,31.59 -16.36,5.1 -36.12,1.71 -54.17,2.27 -9.6,-3.38 -23.14,2.83 -31.04,-5.08 -0.57,-15.23 -18.06,-24.83 -28.21,-33.86 l -0.09,-392.44 h -14.13 v 397.52 l -9.59,13.55 c 1.7,20.31 -22.57,7.32 -33.86,11.29 -13.54,-7.35 -12.41,-25.41 -27.08,-31.61 l 1.66,-390.74 -11.44,-0.01 c -1.27,187.49 -3.1,392.44 -3.1,392.44 l -16.37,9.59 c -6.211,7.34 -10.722,16.93 -6.773,27.08 -19.75,0 -40.629,5.65 -59.821,0 -3.382,-15.22 -15.234,-27.08 -28.214,-35.54 v -393.56 l -13.645,-0.01 v 389.62 c -2.258,9.59 -18.621,13.54 -15.234,25.95 -23.141,20.89 -41.762,-8.45 -58.129,-23.13 l 0.668,-392.44 h -11.891 l 0.602,329.8 -2.825,65.46 c -12.41,6.77 -22.57,19.19 -20.316,34.99 -8.465,-1.14 -18.617,2.26 -25.394,-2.83 1.699,-14.67 -12.973,-24.81 -23.129,-32.16 l -0.657,-395.26 h -14.129 l -1.683,393.57 -9.598,8.46 c 3.957,24.84 -24.262,12.98 -37.804,15.81 l -25.958,-24.27 1.665,-393.57 h -9.989 v 0" /><path
             id="path136"
             style="fill:none;stroke:#231f20;stroke-width:10;stroke-linecap:butt;stroke-linejoin:miter;stroke-miterlimit:10;stroke-dasharray:none;stroke-opacity:1"
             d="m 5,1166.19 c 0,641.31 519.871,1161.19 1161.19,1161.19 641.32,0 1161.19,-519.88 1161.19,-1161.19 C 2327.38,524.859 1807.51,5 1166.19,5 524.871,5 5,524.859 5,1166.19 Z" /><path
             id="path138"
             style="fill:none;stroke:#231f20;stroke-width:10;stroke-linecap:butt;stroke-linejoin:miter;stroke-miterlimit:10;stroke-dasharray:none;stroke-opacity:1"
             d="m 45.8594,1166.19 c 0,618.74 501.5816,1120.34 1120.3306,1120.34 618.75,0 1120.33,-501.6 1120.33,-1120.34 C 2286.52,547.441 1784.94,45.8594 1166.19,45.8594 547.441,45.8594 45.8594,547.441 45.8594,1166.19 Z" /><g
             transform="scale(10)"
             id="g140"><text
               id="text146"
               style="font-variant:normal;font-weight:normal;font-size:37.03689957px;font-family:GillSansStd;-inkscape-font-specification:GillSansStd;writing-mode:lr-tb;fill:#231f20;fill-opacity:1;fill-rule:nonzero;stroke:none"
               transform="matrix(1,0,0,-1,262.372,126.53)"><tspan
                 id="tspan142"
                 y="0"
                 x="0 24.7031 42.443775 58.25853 77.147346 94.888023 123.44347 131.55455 149.29523 159.59149 178.4803 196.22098 210.88701 216.55302 255.14484 263.25592 277.51514 291.77432 309.51501 328.03345 342.29266 358.51483 377.03326 392.84802 402.10727 414.44055 432.18121">Akademie der Wissenschaften</tspan><tspan
                 id="tspan144"
                 y="44.444099"
                 x="0 18.51845 37.0369 55.92572 66.221977 85.110794 102.85147 117.5172 127.81346 145.96098 154.07207 166.40535 184.14603 198.81206 214.62682 226.9601 245.47855 260.14456">und der Literatur </tspan></text>
<text
               id="text150"
               style="font-variant:normal;font-weight:300;font-size:37.03689957px;font-family:GillSansStd;-inkscape-font-specification:GillSansStd-Light;writing-mode:lr-tb;fill:#231f20;fill-opacity:1;fill-rule:nonzero;stroke:none"
               transform="matrix(1,0,0,-1,532.811,83.62887)"><tspan
                 id="tspan148"
                 y="0"
                 x="0">|</tspan></text>
<text
               id="text154"
               style="font-variant:normal;font-weight:normal;font-size:37.03689957px;font-family:GillSansStd;-inkscape-font-specification:GillSansStd;writing-mode:lr-tb;fill:#231f20;fill-opacity:1;fill-rule:nonzero;stroke:none"
               transform="matrix(1,0,0,-1,551.32953,82.0859)"><tspan
                 id="tspan152"
                 y="0"
                 x="0 28.925819 44.740574 52.851658 71.37011">Mainz</tspan></text>
</g></g></g></g></g></svg>