<svg xmlns="http://www.w3.org/2000/svg" xmlns:xlink="http://www.w3.org/1999/xlink" xmlns:serif="http://www.serif.com/" width="100%" height="100%" viewBox="0 0 9350 3467" version="1.1" xml:space="preserve" style="fill-rule:evenodd;clip-rule:evenodd;stroke-linejoin:round;stroke-miterlimit:2;"><g id="Ebene_1"><g><path d="M9229.13,485.524l0,-140.595l-32.917,-8.817l-0,272.257l32.917,-122.845Zm-169.691,633.307l-0,-819.37l-42.422,-11.367l-0,989.053l42.422,-158.316Zm-1296.82,-419.502l0,663.683l109.015,29.209l0,-1099.73l-109.015,406.834Zm-165.921,619.228l105.241,28.2l-0,-420.96l-105.241,392.76Z" style="fill:#007c60;fill-rule:nonzero;"/><path d="M8380.69,117.59l-80.481,-21.559l-0.612,2558.78l81.489,81.494l-0.396,-2618.72Z" style="fill:url(#_Linear1);fill-rule:nonzero;"/><path d="M8224.32,77.123l-103.307,-29.105l-0.058,2428.15l69.347,69.347l-0.008,-1066.95l34.03,9.588l-0.004,-1411.03Z" style="fill:url(#_Linear2);fill-rule:nonzero;"/><path d="M8041.32,26.659l-99.49,-26.659l0.483,2297.53l57.206,57.202l-0.005,-928.244l41.801,11.205l0.005,-1411.03Z" style="fill:url(#_Linear3);fill-rule:nonzero;"/><path d="M7752.01,1458.84l0,650.041l45.064,45.064l-0,-740.164l-45.064,45.059Zm-181.966,181.963l-0,286.111l32.917,32.918l-0,-351.946l-32.917,32.917Zm1779.96,149.729l0,-12.521l-142.187,-142.183l0.004,296.886l142.183,-142.182Zm-194.117,194.117l-0,-400.756l-130.045,-130.044l0.004,660.841l130.041,-130.041Z" style="fill:#82c27a;fill-rule:nonzero;"/><path d="M8955.1,1381.45l-65.36,-65.36l-0,-1062.09l-51.922,-13.917l-0.609,2064.91l117.895,-117.89l-0.004,-805.657Z" style="fill:url(#_Linear4);fill-rule:nonzero;"/><path d="M8764.31,1190.66l-44.243,-44.243l0,-937.889l-61.451,-16.459l-0.054,2291.57l105.752,-105.753l-0.004,-1187.22Z" style="fill:url(#_Linear5);fill-rule:nonzero;"/><path d="M8571.86,999.874l-21.479,-21.488l-0,-815.328l-70.956,-19.009l-1.167,2518.23l93.611,-93.611l-0.009,-1568.79Z" style="fill:url(#_Linear6);fill-rule:nonzero;"/><g><path d="M3698.51,3415.12c-35.214,-34.255 -56.752,-73.852 -64.61,-118.791c-7.875,-44.918 -11.809,-100.252 -11.809,-166.029l0,-397.364l131.991,0l-0,389.022c-0,51.885 2.3,92.873 6.946,122.962c4.625,30.109 16.892,54.876 36.822,74.331c19.904,19.45 51.167,29.175 93.781,29.175c60.197,0 105.807,-21.992 136.853,-65.993c31.022,-43.984 46.543,-97.952 46.543,-161.862l0,-387.635l131.991,0l-0,719.693l-120.878,-0l-0,-102.815c-50.951,77.806 -125.974,116.711 -225.076,116.711c-73.181,-0 -127.366,-17.13 -162.558,-51.41l0.004,0.005Zm690.495,-682.184l131.991,0l0,81.973c56.485,-63.905 128.732,-95.86 216.739,-95.86c74.093,-0 128.974,18.296 164.641,54.876c35.647,36.605 57.66,78.502 65.993,125.74c8.338,47.239 12.505,104.203 12.505,170.892l-0,382.076l-131.987,-0l0,-379.301c0,-50.926 -2.562,-92.152 -7.641,-123.649c-5.101,-31.48 -17.847,-58.118 -38.21,-79.889c-20.384,-21.751 -52.339,-32.651 -95.865,-32.651c-56.509,0 -101.665,20.838 -135.461,62.522c-33.826,41.681 -50.714,96.344 -50.714,163.946l0,389.022l-131.991,-0l0,-719.697Zm765.531,-261.198l137.545,0l0,147.275l-137.545,-0l0,-147.275Zm2.78,261.203l131.99,-0l0,719.692l-131.99,-0l-0,-719.692Zm423.047,686.345c-51.409,-31.475 -90.794,-75.481 -118.098,-131.986c-27.334,-56.489 -40.989,-121.791 -40.989,-195.901c0,-74.093 13.659,-139.157 40.989,-195.209c27.309,-56.03 66.689,-99.556 118.098,-130.603c51.406,-31.021 111.365,-46.543 179.921,-46.543c69.469,0 129.67,15.522 180.617,46.543c50.931,31.043 90.073,74.573 117.403,130.603c27.309,56.052 40.988,121.116 40.988,195.209c0,74.11 -13.679,139.629 -40.988,196.597c-27.334,56.959 -66.472,100.965 -117.403,131.986c-50.951,31.043 -111.148,46.543 -180.617,46.543c-68.556,-0 -128.515,-15.738 -179.921,-47.239Zm334.838,-139.628c35.646,-48.626 53.488,-111.844 53.488,-189.65c0,-76.869 -17.842,-138.937 -53.488,-186.172c-35.668,-47.242 -86.836,-70.864 -153.525,-70.864c-66.693,0 -118.099,23.859 -154.225,71.556c-36.121,47.714 -54.184,109.999 -54.184,186.871c-0,77.802 18.063,140.804 54.184,188.955c36.126,48.168 87.057,72.243 152.837,72.243c67.598,0 119.245,-24.313 154.913,-72.939Zm310.511,-546.722l131.991,0l-0,81.973c56.485,-63.905 128.732,-95.86 216.743,-95.86c74.089,-0 128.969,18.296 164.637,54.876c35.651,36.605 57.66,78.502 65.997,125.74c8.334,47.239 12.501,104.203 12.501,170.892l-0,382.076l-131.987,-0l0,-379.301c0,-50.926 -2.563,-92.152 -7.642,-123.649c-5.1,-31.48 -17.846,-58.118 -38.209,-79.889c-20.38,-21.751 -52.335,-32.651 -95.865,-32.651c-56.51,0 -101.665,20.838 -135.461,62.522c-33.826,41.681 -50.71,96.344 -50.71,163.946l-0,389.022l-131.995,-0l0,-719.697Z" style="fill-rule:nonzero;"/></g><g><path d="M377.909,1304.36l130.603,0l380.689,980.899l-144.496,-0l-90.31,-234.806l-425.139,0l-88.919,234.802l-140.337,-0l377.909,-980.895Zm229.247,623.828l-166.72,-434.873l-165.338,434.873l332.058,-0Zm382.059,357.071l0,-980.899l131.995,0l0,555.747l293.153,-294.549l162.558,0l-265.369,265.373l302.883,454.324l-159.775,-0l-234.801,-362.626l-98.645,98.649l0,263.977l-131.994,-0l-0.005,0.004Zm741.243,-45.159c-44.938,-39.36 -67.389,-92.394 -67.389,-159.079c0,-64.827 18.759,-113.453 56.272,-145.887c37.514,-32.413 90.523,-55.097 159.083,-68.081l188.955,-34.734c19.45,-2.779 32.867,-8.096 40.293,-15.975c7.4,-7.859 11.112,-22.926 11.112,-45.156c0,-35.188 -11.112,-62.522 -33.342,-81.973c-22.234,-19.45 -59.747,-29.179 -112.545,-29.179c-50.013,-0 -87.527,11.117 -112.536,33.346c-25.009,22.23 -39.38,56.964 -43.071,104.203l-133.379,-4.167c8.334,-81.498 38.426,-142.17 90.311,-182.004c51.864,-39.818 119.94,-59.743 204.234,-59.743c72.252,-0 128.282,12.046 168.116,36.117c39.814,24.101 66.69,56.51 80.586,97.257c13.892,40.771 20.834,90.31 20.834,148.666l-0,241.751c-0,75.023 7.408,144.97 22.233,209.797l-120.877,-0c-9.267,-18.521 -16.668,-45.855 -22.226,-81.977c-22.23,30.567 -52.101,54.185 -89.615,70.86c-37.513,16.675 -80.368,25.009 -128.515,25.009c-74.119,-0 -133.62,-19.667 -178.538,-59.051l0.004,-0Zm339.7,-106.286c32.409,-37.968 48.626,-85.211 48.626,-141.712l0,-70.86c-9.267,3.708 -29.175,8.813 -59.743,15.284l-136.157,25.004c-42.618,8.334 -73.877,22.013 -93.782,40.989c-19.929,18.996 -29.875,44.697 -29.875,77.11c-0,33.343 11.812,60.222 35.43,80.585c23.625,20.384 56.272,30.564 97.952,30.564c59.264,-0 105.115,-18.972 137.545,-56.96l0.004,-0.004Zm451.528,120.182c-46.322,-30.088 -82.206,-73.16 -107.67,-129.212c-25.488,-56.03 -38.209,-122.961 -38.209,-200.763c0,-77.806 13.417,-144.712 40.293,-200.767c26.85,-56.031 63.431,-98.644 109.757,-127.824c46.305,-29.176 98.169,-43.759 155.612,-43.759c97.256,-0 171.35,31.95 222.297,95.86l-0,-343.171l131.99,0l0,980.899l-130.599,-0l0,-93.094c-50.951,71.335 -125.519,106.986 -223.688,106.986c-60.223,-0 -113.474,-15.046 -159.779,-45.155l-0.004,-0Zm332.062,-138.245c36.126,-46.306 54.189,-110.211 54.189,-191.73c-0,-80.585 -18.063,-143.803 -54.189,-189.65c-36.126,-45.847 -85.227,-68.777 -147.27,-68.777c-62.064,0 -110.932,23.405 -146.579,70.168c-35.667,46.781 -53.493,110.453 -53.493,191.034c0,81.519 17.584,144.975 52.793,190.342c35.197,45.397 83.823,68.085 145.887,68.085c62.976,0 112.54,-23.142 148.662,-69.472Zm346.646,-382.772c26.396,-56.96 64.822,-101.419 115.319,-133.378c50.472,-31.959 110.911,-47.93 181.313,-47.93c100.944,-0 179.225,31.734 234.801,95.168c55.577,63.456 83.365,152.137 83.365,266.065c-0,22.23 -0.479,38.901 -1.392,50.018l-516.846,0c3.692,72.248 22.684,127.603 56.964,166.029c34.259,38.447 81.973,57.66 143.108,57.66c48.147,-0 88.677,-12.721 121.569,-38.209c32.868,-25.459 56.727,-60.435 71.552,-104.895l115.32,38.901c-22.23,67.623 -61.373,120.657 -117.403,159.083c-56.052,38.447 -121.57,57.66 -196.597,57.66c-66.689,-0 -125.044,-15.046 -175.058,-45.155c-50.018,-30.088 -88.465,-72.944 -115.319,-128.52c-26.876,-55.572 -40.293,-120.874 -40.293,-195.901c-0,-74.089 13.2,-139.628 39.597,-196.596Zm482.803,128.52c-1.863,-63.914 -19.23,-113.236 -52.097,-147.97c-32.893,-34.735 -78.502,-52.102 -136.853,-52.102c-58.352,0 -104.203,18.542 -137.55,55.577c-33.342,37.055 -52.792,85.227 -58.351,144.495l384.855,-0l-0.004,-0Zm277.865,-295.941l131.991,0l-0,80.586c56.484,-62.977 123.178,-94.473 200.067,-94.473c49.084,-0 91.702,9.958 127.824,29.867c36.126,19.93 64.368,49.322 84.752,88.227c59.268,-77.806 138.003,-116.711 236.193,-116.711c71.314,-0 124.349,17.609 159.087,52.797c34.73,35.213 56.027,75.723 63.906,121.57c7.858,45.851 11.813,101.21 11.813,166.033l-0,391.801l-131.991,-0l0,-390.414c0,-44.459 -2.325,-81.973 -6.95,-112.536c-4.642,-30.567 -16.909,-56.968 -36.818,-79.198c-19.925,-22.229 -50.255,-33.342 -91.002,-33.342c-54.668,0 -97.494,19.93 -128.515,59.743c-31.043,39.834 -46.543,96.798 -46.543,170.892l-0,384.855l-131.991,-0l0,-386.243c0,-42.597 -2.325,-79.414 -6.95,-110.457c-4.646,-31.021 -17.367,-58.572 -38.209,-82.668c-20.838,-24.076 -52.577,-36.126 -95.169,-36.126c-50.951,-0 -91.94,19.692 -122.962,59.051c-31.042,39.376 -46.542,94.261 -46.542,164.642l-0,391.801l-131.991,-0l-0,-719.697Zm1190.69,-261.198l137.545,0l0,147.275l-137.545,-0l0,-147.275Zm2.779,261.198l131.991,0l0,719.701l-131.991,-0l0,-719.701Zm310.508,167.421c26.396,-56.96 64.822,-101.419 115.319,-133.378c50.472,-31.959 110.911,-47.93 181.313,-47.93c100.944,-0 179.225,31.734 234.801,95.168c55.577,63.456 83.365,152.137 83.365,266.065c-0,22.23 -0.479,38.901 -1.392,50.018l-516.845,0c3.691,72.248 22.683,127.603 56.963,166.029c34.26,38.447 81.973,57.66 143.108,57.66c48.147,-0 88.677,-12.721 121.57,-38.209c32.867,-25.459 56.726,-60.435 71.551,-104.895l115.32,38.901c-22.23,67.623 -61.373,120.657 -117.403,159.083c-56.051,38.447 -121.57,57.66 -196.596,57.66c-66.69,-0 -125.045,-15.046 -175.063,-45.155c-50.014,-30.088 -88.46,-72.944 -115.315,-128.52c-26.876,-55.572 -40.293,-120.874 -40.293,-195.901c0,-74.089 13.2,-139.628 39.597,-196.596Zm482.803,128.52c-1.862,-63.914 -19.229,-113.236 -52.097,-147.97c-32.892,-34.735 -78.502,-52.102 -136.853,-52.102c-58.352,0 -104.203,18.542 -137.549,55.577c-33.347,37.055 -52.793,85.227 -58.352,144.495l384.855,-0l-0.004,-0Zm277.865,-295.941l131.991,0l-0,81.977c56.485,-63.91 128.732,-95.86 216.743,-95.86c74.089,-0 128.969,18.296 164.637,54.876c35.651,36.605 57.66,78.502 65.997,125.741c8.334,47.238 12.501,104.202 12.501,170.891l-0,382.076l-131.987,-0l0,-379.301c0,-50.926 -2.563,-92.152 -7.642,-123.649c-5.1,-31.48 -17.846,-58.118 -38.209,-79.889c-20.38,-21.751 -52.335,-32.651 -95.865,-32.651c-56.51,0 -101.665,20.838 -135.461,62.523c-33.826,41.68 -50.71,96.344 -50.71,163.945l-0,389.022l-131.995,-0l0,-719.701Z" style="fill-rule:nonzero;"/></g></g></g><defs><linearGradient id="_Linear1" x1="0" y1="0" x2="1" y2="0" gradientUnits="userSpaceOnUse" gradientTransform="matrix(1.54835e-13,-2528.64,2528.64,1.54835e-13,8340.35,2665.82)"><stop offset="0" style="stop-color:#82c27a;stop-opacity:1"/><stop offset="0" style="stop-color:#82c27a;stop-opacity:1"/><stop offset="0.11" style="stop-color:#7ec079;stop-opacity:1"/><stop offset="0.21" style="stop-color:#74ba77;stop-opacity:1"/><stop offset="0.29" style="stop-color:#62b173;stop-opacity:1"/><stop offset="0.38" style="stop-color:#49a36e;stop-opacity:1"/><stop offset="0.46" style="stop-color:#299268;stop-opacity:1"/><stop offset="0.54" style="stop-color:#027d60;stop-opacity:1"/><stop offset="1" style="stop-color:#007c60;stop-opacity:1"/></linearGradient><linearGradient id="_Linear2" x1="0" y1="0" x2="1" y2="0" gradientUnits="userSpaceOnUse" gradientTransform="matrix(1.46919e-13,-2399.36,2399.36,1.46919e-13,8172.64,2495.15)"><stop offset="0" style="stop-color:#82c27a;stop-opacity:1"/><stop offset="0" style="stop-color:#82c27a;stop-opacity:1"/><stop offset="0.08" style="stop-color:#7cbf79;stop-opacity:1"/><stop offset="0.18" style="stop-color:#6db775;stop-opacity:1"/><stop offset="0.29" style="stop-color:#54a970;stop-opacity:1"/><stop offset="0.4" style="stop-color:#309669;stop-opacity:1"/><stop offset="0.53" style="stop-color:#037e60;stop-opacity:1"/><stop offset="1" style="stop-color:#007c60;stop-opacity:1"/></linearGradient><linearGradient id="_Linear3" x1="0" y1="0" x2="1" y2="0" gradientUnits="userSpaceOnUse" gradientTransform="matrix(1.41752e-13,-2314.99,2314.99,1.41752e-13,7991.57,2316.7)"><stop offset="0" style="stop-color:#82c27a;stop-opacity:1"/><stop offset="0" style="stop-color:#82c27a;stop-opacity:1"/><stop offset="0.09" style="stop-color:#7ec079;stop-opacity:1"/><stop offset="0.18" style="stop-color:#72ba77;stop-opacity:1"/><stop offset="0.26" style="stop-color:#5faf73;stop-opacity:1"/><stop offset="0.34" style="stop-color:#44a16d;stop-opacity:1"/><stop offset="0.43" style="stop-color:#218e66;stop-opacity:1"/><stop offset="0.49" style="stop-color:#007c60;stop-opacity:1"/><stop offset="1" style="stop-color:#007c60;stop-opacity:1"/></linearGradient><linearGradient id="_Linear4" x1="0" y1="0" x2="1" y2="0" gradientUnits="userSpaceOnUse" gradientTransform="matrix(1.18583e-13,-1936.6,1936.6,1.18583e-13,8896.16,2216.57)"><stop offset="0" style="stop-color:#82c27a;stop-opacity:1"/><stop offset="0" style="stop-color:#82c27a;stop-opacity:1"/><stop offset="0.17" style="stop-color:#7fc179;stop-opacity:1"/><stop offset="0.27" style="stop-color:#77bc78;stop-opacity:1"/><stop offset="0.34" style="stop-color:#69b575;stop-opacity:1"/><stop offset="0.41" style="stop-color:#55aa71;stop-opacity:1"/><stop offset="0.48" style="stop-color:#3b9c6b;stop-opacity:1"/><stop offset="0.53" style="stop-color:#1c8b65;stop-opacity:1"/><stop offset="0.58" style="stop-color:#007c60;stop-opacity:1"/><stop offset="1" style="stop-color:#007c60;stop-opacity:1"/></linearGradient><linearGradient id="_Linear5" x1="0" y1="0" x2="1" y2="0" gradientUnits="userSpaceOnUse" gradientTransform="matrix(1.32596e-13,-2165.46,2165.46,1.32596e-13,8711.44,2400.75)"><stop offset="0" style="stop-color:#82c27a;stop-opacity:1"/><stop offset="0" style="stop-color:#82c27a;stop-opacity:1"/><stop offset="0.12" style="stop-color:#7ec079;stop-opacity:1"/><stop offset="0.23" style="stop-color:#72b976;stop-opacity:1"/><stop offset="0.35" style="stop-color:#5dae72;stop-opacity:1"/><stop offset="0.47" style="stop-color:#419f6d;stop-opacity:1"/><stop offset="0.58" style="stop-color:#1d8c65;stop-opacity:1"/><stop offset="0.66" style="stop-color:#007c60;stop-opacity:1"/><stop offset="1" style="stop-color:#007c60;stop-opacity:1"/></linearGradient><linearGradient id="_Linear6" x1="0" y1="0" x2="1" y2="0" gradientUnits="userSpaceOnUse" gradientTransform="matrix(1.47097e-13,-2402.27,2402.27,1.47097e-13,8525.06,2589.49)"><stop offset="0" style="stop-color:#82c27a;stop-opacity:1"/><stop offset="0" style="stop-color:#82c27a;stop-opacity:1"/><stop offset="0.09" style="stop-color:#7dbf79;stop-opacity:1"/><stop offset="0.2" style="stop-color:#6fb876;stop-opacity:1"/><stop offset="0.32" style="stop-color:#57ab71;stop-opacity:1"/><stop offset="0.44" style="stop-color:#36996a;stop-opacity:1"/><stop offset="0.56" style="stop-color:#0d8362;stop-opacity:1"/><stop offset="0.59" style="stop-color:#007c60;stop-opacity:1"/><stop offset="1" style="stop-color:#007c60;stop-opacity:1"/></linearGradient></defs></svg>